<svg width="81" height="56" fill="none" xmlns="http://www.w3.org/2000/svg"><path d="M39.455 54.094l-1.93-40.464c-.035-.743.442-1.37 1.045-1.37h3.858c.603 0 1.08.627 1.045 1.37l-1.93 40.464c-.075 1.624-2.011 1.624-2.088 0z" fill="url(#paint0_linear)"/><path d="M40.5 10.005c2.655 0 4.807-2.167 4.807-4.839 0-2.672-2.152-4.838-4.808-4.838-2.655 0-4.807 2.166-4.807 4.838s2.152 4.839 4.807 4.839z" fill="url(#paint1_radial)"/><path d="M43.584 13.81h-6.169a1.15 1.15 0 01-1.145-1.153 1.15 1.15 0 011.145-1.153h6.169a1.15 1.15 0 011.145 1.153 1.15 1.15 0 01-1.145 1.153z" fill="#00868A"/><path d="M80.53 24.61L51.98 13.376a.733.733 0 00-.78.15c-2.787 2.686-6.946 3.505-10.074 3.705-.209.013-.418.02-.626.02v8.767c2.005 0 4.011.608 5.732 1.822 1.332.94 2.622 1.904 3.758 2.78a10.653 10.653 0 009.358 1.83.747.747 0 00.217-1.337l-8.472-5.48c-.771-.522-.079-1.707.75-1.283l10.972 6.63a.736.736 0 00.527.056l5.776-1.55c.658-.177.751-1.078.143-1.386L54.96 21.853c-.838-.425-.28-1.698.597-1.362l17.904 7.494a.735.735 0 00.536-.003l6.534-1.984c.625-.25.625-1.14 0-1.389z" fill="url(#paint2_linear)"/><path d="M39.873 17.232c-3.128-.2-7.287-1.019-10.074-3.704a.733.733 0 00-.779-.15L.47 24.608c-.626.248-.626 1.14-.002 1.387l6.534 1.984c.172.069.363.07.536.004l17.904-7.495c.876-.336 1.434.938.597 1.363l-14.3 6.247c-.609.309-.516 1.21.142 1.386l5.776 1.55a.739.739 0 00.527-.056l10.973-6.63c.828-.424 1.521.761.75 1.284l-8.473 5.48a.747.747 0 00.217 1.337c3.233.897 6.697.221 9.359-1.83a111.646 111.646 0 013.757-2.78 9.933 9.933 0 015.732-1.822V17.25c-.208 0-.417-.006-.626-.019z" fill="url(#paint3_linear)"/><path d="M38.442 32.866c-1.274-.134-2.483-.267-3.665-.52-2.162-.463-3.796-1.322-4.483-2.357-1.003-1.512.124-3.46 1.756-4.603.46-.322.573-.956.253-1.42a1.01 1.01 0 00-1.41-.254c-2.85 1.995-3.81 5.11-2.285 7.41 1.272 1.917 3.827 2.809 5.747 3.22.103.022.206.041.308.062 1.138-.574 2.469-.823 3.803-1.02l-.024-.518z" fill="url(#paint4_linear)"/><path d="M42.041 43.684c.957.286 1.588.682 1.791 1.148.144.33-.03.743-.43 1.028-.376.268-.932.417-1.485.423l-.097 2.042h.074c.976 0 1.947-.279 2.679-.8 1.189-.845 1.648-2.29 1.115-3.511a3.326 3.326 0 00-1.034-1.298 16.23 16.23 0 01-2.589.476l-.023.492z" fill="url(#paint5_linear)"/><path d="M47.47 35.151a5.579 5.579 0 00-1.135-.747c-1.24.245-2.507.38-3.734.509l-.142.015-.024.504c1.49.226 2.845.519 3.72 1.271.52.448.822 1.046.825 1.641.002.502-.208.951-.607 1.302-.84.738-2.254 1.236-4.209 1.481-.28.036-.57.065-.87.09-.274.022-.538.05-.794.082a14.08 14.08 0 00-1.641.297c-1.054.263-1.893.636-2.512 1.12a3.307 3.307 0 00-1.035 1.298c-.531 1.222-.072 2.666 1.116 3.512.731.52 1.703.8 2.678.8l.075-.001-.097-2.042c-.553-.005-1.109-.155-1.485-.423-.401-.285-.573-.699-.43-1.029.203-.465.835-.86 1.791-1.147.447-.134.964-.244 1.542-.327.304-.044.623-.08.959-.108.207-.016.408-.037.606-.058a16.206 16.206 0 002.589-.476c1.278-.356 2.29-.863 3.052-1.533.844-.741 1.307-1.753 1.3-2.849-.008-1.19-.568-2.35-1.538-3.182z" fill="url(#paint6_linear)"/><path d="M50.107 23.712a1.01 1.01 0 00-1.411.255 1.024 1.024 0 00.253 1.42c1.632 1.142 2.759 3.09 1.756 4.602-.686 1.035-2.321 1.894-4.483 2.357-1.181.253-2.39.385-3.665.52l-.166.017a79.31 79.31 0 00-1.892.214c-.217.029-.434.058-.65.09-.228.034-.457.065-.686.097l-.696.1c-1.334.197-2.666.446-3.803 1.019a5.581 5.581 0 00-1.135.747c-.97.834-1.53 1.993-1.536 3.182-.006 1.096.456 2.108 1.3 2.85.763.669 1.773 1.176 3.053 1.532.62-.483 1.458-.857 2.512-1.12l-.022-.468c-1.955-.246-3.369-.744-4.21-1.481-.398-.352-.608-.801-.605-1.302.003-.596.303-1.194.824-1.642.876-.752 2.23-1.044 3.72-1.27.289-.044.582-.086.878-.127l.7-.1c.118-.018.238-.033.356-.05.649-.087 1.31-.16 1.96-.228l.141-.015c1.228-.129 2.495-.264 3.734-.51l.308-.061c1.92-.41 4.475-1.304 5.747-3.22 1.526-2.297.566-5.413-2.282-7.408z" fill="url(#paint7_linear)"/><defs><linearGradient id="paint0_linear" x1="40.5" y1="55.312" x2="40.5" y2="12.261" gradientUnits="userSpaceOnUse"><stop stop-color="#4FBFA5"/><stop offset="1" stop-color="#006A65"/></linearGradient><linearGradient id="paint2_linear" x1="40.5" y1="23.082" x2="81" y2="23.082" gradientUnits="userSpaceOnUse"><stop stop-color="#4FBFA5"/><stop offset="1" stop-color="#00868A"/></linearGradient><linearGradient id="paint3_linear" x1="0" y1="23.082" x2="40.5" y2="23.082" gradientUnits="userSpaceOnUse"><stop stop-color="#4FBFA5"/><stop offset="1" stop-color="#00868A"/></linearGradient><linearGradient id="paint4_linear" x1="27.889" y1="28.966" x2="38.467" y2="28.966" gradientUnits="userSpaceOnUse"><stop stop-color="#4FBFA5"/><stop offset="1" stop-color="#00868A"/></linearGradient><linearGradient id="paint5_linear" x1="41.82" y1="45.52" x2="45.907" y2="45.52" gradientUnits="userSpaceOnUse"><stop stop-color="#00868A"/><stop offset="1" stop-color="#4FBFA5"/></linearGradient><linearGradient id="paint6_linear" x1="35.092" y1="41.364" x2="49.006" y2="41.364" gradientUnits="userSpaceOnUse"><stop stop-color="#00868A"/><stop offset="1" stop-color="#4FBFA5"/></linearGradient><linearGradient id="paint7_linear" x1="31.994" y1="33.122" x2="53.11" y2="33.122" gradientUnits="userSpaceOnUse"><stop stop-color="#4FBFA5"/><stop offset="1" stop-color="#00868A"/></linearGradient><radialGradient id="paint1_radial" cx="0" cy="0" r="1" gradientUnits="userSpaceOnUse" gradientTransform="matrix(4.80728 0 0 4.8382 39.31 4.501)"><stop stop-color="#4FBFA5"/><stop offset="1" stop-color="#00868A"/></radialGradient></defs></svg>