<svg width="100" height="28" fill="none" xmlns="http://www.w3.org/2000/svg"><path d="M34.289.156l.167.153v.934l-.149.133c-1.364.038-2.21.11-2.539.21-.328.102-.561.27-.697.504-.136.235-.215.695-.233 1.38-.019.686-.053 2.624-.103 5.81v8.784c0 1.27.019 2.705.056 4.305.037 1.6.114 2.532.233 2.791.117.26.332.451.641.571.31.12 1.192.2 2.642.239l.15.134v.933l-.168.153a94.922 94.922 0 00-5.284-.172c-1.018 0-2.748.058-5.19.172l-.169-.153v-.914l.15-.153c1.364-.038 2.21-.107 2.539-.21.328-.101.561-.27.697-.504.136-.235.216-.7.243-1.4.024-.698.056-2.629.093-5.79V4.082l-6.42 13.754a174.471 174.471 0 00-4.222 9.717H16a175.578 175.578 0 00-1.711-3.926L5.395 4.71v13.317c0 1.245.015 2.677.047 4.296.032 1.62.108 2.557.233 2.81.123.255.341.446.65.572.31.128 1.192.202 2.643.229l.149.152v.915l-.168.172-1.191-.057a63.18 63.18 0 00-3.163-.096c-.397 0-1.879.05-4.446.153l-.15-.153v-.914l.15-.172c1.365-.025 2.207-.088 2.53-.191.322-.101.555-.273.697-.514.142-.24.224-.691.242-1.352.02-.66.047-2.61.084-5.848V9.304c0-1.155-.015-2.563-.046-4.22-.032-1.657-.107-2.616-.224-2.877-.117-.26-.332-.455-.641-.58-.31-.127-1.192-.203-2.642-.23l-.15-.152V.328L.168.156c.856.063 2.01.096 3.46.096C4.994.252 6.183.222 7.2.156a157.012 157.012 0 002.996 6.689l7.052 14.821L23.61 8.082c1.725-3.67 2.884-6.312 3.48-7.926a66.49 66.49 0 003.515.096c1.04 0 2.268-.03 3.683-.096zm2.399.077l.15-.133c4.254.076 6.976.114 8.168.114C49.074.214 52.695.176 55.87.1l.093.133c-.31 1.22-.539 3.132-.688 5.736l-.112.153h-.911l-.168-.153c.013-.115.018-.216.018-.306 0-1.078-.08-2.108-.242-3.087-.781-.355-1.864-.588-3.246-.695-1.383-.107-2.422-.162-3.116-.162-.98 0-2.231.07-3.758.21l-.075 3.047-.056 3.486-.056 3.869a65.69 65.69 0 003.703.114c1.141 0 2.096-.038 2.866-.114.768-.077 1.22-.155 1.348-.24.13-.081.229-.24.298-.474.067-.235.127-.652.177-1.25l.075-1.181.149-.153h.856l.149.153a452.034 452.034 0 01-.093 4.172l.093 4.286-.15.153h-.855l-.15-.153-.13-1.143c-.112-.89-.192-1.42-.242-1.59a.83.83 0 00-.345-.448c-.18-.126-.642-.229-1.385-.305-.744-.077-1.768-.115-3.07-.115a85.7 85.7 0 00-3.292.096c-.061 1.067-.093 2.845-.093 5.334 0 2.668.032 4.63.093 5.887h3.423c3.015 0 4.9-.038 5.655-.115a7.317 7.317 0 002.16-.552c.111-.292.294-.968.547-2.03.254-1.059.401-1.723.438-1.99l.187-.134h.893l.15.133c-.113.546-.22 1.5-.327 2.859a45.687 45.687 0 00-.159 3.486l-.13.153c-2.37-.077-5.47-.115-9.302-.115l-5.06-.038c-1.178 0-2.407.05-3.684.153l-.15-.153v-.628l.15-.191c.73-.382 1.15-.619 1.257-.714.104-.096.191-1.207.26-3.334.068-2.127.103-3.75.103-4.867v-6.99l-.019-4.324c0-.94-.013-1.705-.037-2.295-.024-.59-.069-1.012-.13-1.268-.062-.254-.135-.431-.215-.533a.91.91 0 00-.391-.257c-.181-.071-.487-.13-.921-.182l-1.414-.114-.149-.134V.233h-.002zM59.162.232l.15-.133c2.146.1 3.61.152 4.39.152l8.707-.19c2.48 0 4.514.238 6.103.714 1.588.475 2.998 1.302 4.232 2.476a11.79 11.79 0 012.81 4.095c.637 1.557.958 3.218.958 4.982 0 1.714-.29 3.41-.874 5.086a14.902 14.902 0 01-2.484 4.506c-1.072 1.327-2.295 2.398-3.665 3.21-1.37.813-2.745 1.355-4.12 1.628a21.647 21.647 0 01-4.224.409c-.967 0-2.79-.038-5.47-.115a80.543 80.543 0 00-1.749-.038c-.856 0-1.892.05-3.106.153l-.15-.153v-.628l.15-.19c.73-.383 1.15-.62 1.257-.715.104-.096.192-1.207.26-3.334s.103-3.75.103-4.866v-6.988l-.019-4.325c0-.94-.013-1.705-.037-2.295-.024-.59-.069-1.012-.13-1.268-.062-.254-.135-.431-.215-.533a.91.91 0 00-.391-.257c-.18-.07-.487-.13-.921-.182l-1.414-.114-.149-.134V.232h-.002zm6.884 24.863c1.266.254 2.722.382 4.372.382 2.89 0 5.2-.494 6.93-1.485 1.73-.991 3.023-2.457 3.878-4.401.856-1.944 1.285-4.134 1.285-6.572 0-3.595-.936-6.383-2.81-8.365-1.872-1.982-4.825-2.972-8.856-2.972-1.661 0-3.263.127-4.8.381a151.369 151.369 0 00-.148 7.05v5.981l.037 5.602c0 1.09.037 2.559.112 4.4zM89.19.1l2.324.076c1.526.052 2.525.076 2.997.076.421 0 2.202-.05 5.34-.152l.149.133v.953l-.15.134a26.06 26.06 0 00-1.981.114c-.467.052-.804.147-1.015.287-.21.139-.35.465-.42.981-.068.514-.102 1.23-.102 2.144l-.037 4.382v8.82l.019 3.716c.013 1.436.048 2.362.111 2.782.062.42.151.7.27.838.118.14.346.258.68.354.335.095 1.16.168 2.474.22l.149.114v.953l-.15.152c-.061 0-1.154-.038-3.273-.114a77.82 77.82 0 00-2.066-.038c-.384 0-2.16.05-5.321.152l-.15-.152v-.953l.15-.115c1.154-.05 1.922-.114 2.306-.19.384-.077.641-.174.772-.297.13-.12.235-.378.317-.771.08-.393.127-1.27.14-2.63l.018-4.018V9.23l-.037-3.716c-.013-1.447-.047-2.38-.103-2.8-.056-.42-.143-.7-.26-.839-.118-.14-.346-.254-.68-.343-.335-.088-1.159-.159-2.473-.21l-.15-.134V.233L89.19.1z" fill="#333"/></svg>