<?xml version="1.0" encoding="utf-8"?>
<!-- Generator: Adobe Illustrator 16.0.0, SVG Export Plug-In . SVG Version: 6.00 Build 0)  -->
<!DOCTYPE svg PUBLIC "-//W3C//DTD SVG 1.1//EN" "http://www.w3.org/Graphics/SVG/1.1/DTD/svg11.dtd">
<svg version="1.1" id="Слой_1" xmlns="http://www.w3.org/2000/svg" xmlns:xlink="http://www.w3.org/1999/xlink" x="0px" y="0px"
	 width="265px" height="235px" viewBox="0 0 265 235" enable-background="new 0 0 265 235" xml:space="preserve">
<path fill-rule="evenodd" clip-rule="evenodd" fill="#201F22" d="M60.39,98.272h3.6c0.389,0,1.143-0.125,2.262-0.377
	c0.565-0.113,1.027-0.403,1.385-0.869c0.358-0.465,0.537-1,0.537-1.604c0-0.894-0.283-1.58-0.848-2.057
	c-0.565-0.479-1.627-0.718-3.186-0.718h-3.75V98.272z M51.836,114.647V87.06h14.205c2.633,0,4.646,0.226,6.039,0.678
	c1.393,0.453,2.515,1.291,3.368,2.517c0.853,1.225,1.279,2.718,1.279,4.476c0,1.533-0.327,2.856-0.98,3.968
	c-0.654,1.112-1.552,2.014-2.696,2.704c-0.729,0.44-1.729,0.805-2.999,1.094c1.014,0.339,1.753,0.678,2.216,1.017
	c0.313,0.226,0.767,0.708,1.362,1.449c0.595,0.741,0.993,1.312,1.193,1.714l4.139,7.97h-9.633l-4.554-8.413
	c-0.577-1.089-1.091-1.796-1.542-2.122c-0.615-0.425-1.311-0.639-2.09-0.639H60.39v11.173H51.836z"/>
<polygon fill-rule="evenodd" clip-rule="evenodd" fill="#E69F00" points="81.676,87.06 104.485,87.06 104.485,92.955 90.229,92.955 
	90.229,97.347 103.445,97.347 103.445,102.973 90.229,102.973 90.229,108.406 104.909,108.406 104.909,114.647 81.676,114.647 "/>
<path fill-rule="evenodd" clip-rule="evenodd" fill="#E69F00" d="M127.839,103.358l7.474,2.255
	c-0.501,2.093-1.292,3.842-2.372,5.246c-1.08,1.404-2.42,2.463-4.021,3.178c-1.601,0.715-3.638,1.071-6.111,1.071
	c-3,0-5.452-0.435-7.354-1.305c-1.902-0.872-3.544-2.403-4.925-4.596s-2.072-4.999-2.072-8.42c0-4.561,1.214-8.066,3.644-10.516
	c2.429-2.45,5.865-3.675,10.309-3.675c3.477,0,6.21,0.703,8.2,2.108c1.99,1.405,3.467,3.563,4.434,6.476l-7.514,1.665
	c-0.264-0.836-0.541-1.447-0.83-1.834c-0.478-0.647-1.062-1.146-1.753-1.496c-0.69-0.35-1.464-0.524-2.318-0.524
	c-1.935,0-3.418,0.776-4.449,2.326c-0.779,1.151-1.168,2.958-1.168,5.422c0,3.052,0.464,5.143,1.393,6.274
	c0.929,1.132,2.234,1.698,3.917,1.698c1.631,0,2.865-0.457,3.699-1.372C126.857,106.427,127.463,105.099,127.839,103.358z"/>
<polygon fill-rule="evenodd" clip-rule="evenodd" fill="#201F22" points="139.454,87.06 147.97,87.06 147.97,97.485 156.903,87.06 
	168.236,87.06 158.168,97.428 168.698,114.647 158.209,114.647 152.395,103.317 147.97,107.93 147.97,114.647 139.454,114.647 "/>
<polygon fill-rule="evenodd" clip-rule="evenodd" fill="#E69F00" points="212.817,103.704 203.733,95.438 196.101,103.827 
	214,120.111 "/>
<polygon fill-rule="evenodd" clip-rule="evenodd" fill="#201F22" points="196.577,121.559 204.209,113.171 195.123,104.905 
	180.088,121.433 "/>
<polygon fill-rule="evenodd" clip-rule="evenodd" fill="#E69F00" points="177.237,103.964 186.322,112.229 193.954,103.841 
	176.055,87.556 "/>
<polygon fill-rule="evenodd" clip-rule="evenodd" fill="#201F22" points="193.482,86.109 185.851,94.498 194.935,102.763 
	209.972,86.236 "/>
</svg>
