<?xml version="1.0" encoding="utf-8"?>
<!-- Generator: Adobe Illustrator 16.0.0, SVG Export Plug-In . SVG Version: 6.00 Build 0)  -->
<!DOCTYPE svg PUBLIC "-//W3C//DTD SVG 1.1//EN" "http://www.w3.org/Graphics/SVG/1.1/DTD/svg11.dtd">
<svg version="1.1" id="Слой_1" xmlns="http://www.w3.org/2000/svg" xmlns:xlink="http://www.w3.org/1999/xlink" x="0px" y="0px"
	 width="70px" height="70px" viewBox="0 0 70 70" enable-background="new 0 0 70 70" xml:space="preserve">
<path fill="#347982" d="M51.899,57.807H18.935c-3.87,0-7.018-3.148-7.018-7.018V17.825c0-3.87,3.147-7.018,7.018-7.018h32.965
	c3.869,0,7.018,3.148,7.018,7.018v32.964C58.917,54.658,55.769,57.807,51.899,57.807z M18.935,12.912
	c-2.709,0-4.913,2.204-4.913,4.914v32.964c0,2.709,2.204,4.913,4.913,4.913h32.965c2.708,0,4.912-2.204,4.912-4.913V17.825
	c0-2.71-2.204-4.914-4.912-4.914H18.935z"/>
<path fill-rule="evenodd" clip-rule="evenodd" fill="#347982" d="M20.797,39.024c0.622-0.622,1.155-1.175,1.714-1.698
	c0.105-0.098,0.321-0.125,0.479-0.109c1.518,0.145,3.034,0.295,4.548,0.469c0.357,0.04,0.607-0.016,0.869-0.294
	c1.305-1.385,2.636-2.744,3.957-4.114c0.106-0.11,0.206-0.225,0.336-0.368c-0.195-0.102-0.356-0.192-0.522-0.273
	c-3.173-1.551-6.348-3.1-9.522-4.651c-0.615-0.3-0.619-0.324-0.147-0.797c0.633-0.633,1.28-1.255,1.895-1.907
	c0.266-0.283,0.539-0.365,0.917-0.317c2.617,0.341,5.236,0.664,7.854,0.993c1.746,0.22,3.489,0.448,5.238,0.648
	c0.161,0.019,0.385-0.101,0.509-0.225c1.393-1.407,2.766-2.837,4.16-4.244c1.307-1.321,2.896-2.149,4.711-2.514
	c1.379-0.277,2.479,0.969,2.146,2.413c-0.424,1.838-1.303,3.42-2.68,4.725c-1.357,1.287-2.694,2.596-4.052,3.883
	c-0.214,0.204-0.283,0.39-0.244,0.693c0.559,4.347,1.104,8.696,1.628,13.047c0.028,0.235-0.096,0.555-0.259,0.733
	c-0.628,0.683-1.3,1.323-1.956,1.979c-0.455,0.453-0.505,0.445-0.78-0.121c-1.546-3.175-3.091-6.351-4.638-9.526
	c-0.076-0.155-0.152-0.309-0.251-0.507c-0.121,0.101-0.229,0.181-0.324,0.272c-1.416,1.364-2.834,2.724-4.233,4.104
	c-0.14,0.138-0.239,0.403-0.221,0.598c0.138,1.549,0.322,3.094,0.458,4.643c0.019,0.215-0.095,0.49-0.239,0.658
	c-0.369,0.428-0.788,0.812-1.191,1.21c-0.359,0.354-0.454,0.338-0.656-0.13c-0.825-1.917-1.658-3.832-2.461-5.758
	c-0.166-0.399-0.413-0.625-0.8-0.788c-1.894-0.8-3.778-1.623-5.665-2.439C21.21,39.242,21.051,39.152,20.797,39.024z"/>
</svg>
