<?xml version="1.0" encoding="utf-8"?>
<!-- Generator: Adobe Illustrator 16.0.0, SVG Export Plug-In . SVG Version: 6.00 Build 0)  -->
<!DOCTYPE svg PUBLIC "-//W3C//DTD SVG 1.1//EN" "http://www.w3.org/Graphics/SVG/1.1/DTD/svg11.dtd">
<svg version="1.1" id="Слой_1" xmlns="http://www.w3.org/2000/svg" xmlns:xlink="http://www.w3.org/1999/xlink" x="0px" y="0px"
	 width="70px" height="70px" viewBox="0 0 70 70" enable-background="new 0 0 70 70" xml:space="preserve">
<path fill="#347982" d="M51.898,57.807H18.935c-3.87,0-7.018-3.147-7.018-7.018V17.825c0-3.87,3.147-7.018,7.018-7.018H51.9
	c3.869,0,7.018,3.148,7.018,7.018v32.964C58.917,54.658,55.77,57.807,51.898,57.807z M18.935,12.912
	c-2.709,0-4.913,2.204-4.913,4.914V50.79c0,2.709,2.204,4.913,4.913,4.913H51.9c2.707,0,4.912-2.204,4.912-4.913V17.825
	c0-2.71-2.205-4.914-4.912-4.914L18.935,12.912L18.935,12.912z"/>
<g>
	<path fill="#347982" d="M48.356,21.312h-4.707v26.426h4.707V21.312z M37.886,35.463h-4.707v12.275h4.707V35.463z M27.416,31.152
		h-4.707v16.586h4.707V31.152z M42.506,48.5h-3.492h-6.964h-3.489h-6.98H18.5v-0.762h3.081V30.023h6.98v17.715h3.489V34.334h6.964
		v13.404h3.492V20.169h6.98v27.569h3.079V48.5h-3.079H42.506z"/>
	<path fill="#347982" d="M53.065,49H18v-1.762h3.081V29.523h7.98v17.715h2.489V33.834h7.964v13.404h2.492V19.669h7.98v27.569h3.079
		V49z M48.856,48h0.13V20.669h-5.98V48h0.144V20.812h5.707V48z M38.386,48h0.128V34.834h-5.964V48h0.129V34.963h5.707V48z
		 M27.916,48h0.145V30.523h-5.98V48h0.128V30.652h5.707V48z M44.149,47.238h3.707V21.812h-3.707V47.238z M33.679,47.238h3.707
		V35.963h-3.707V47.238z M23.209,47.238h3.707V31.652h-3.707V47.238z"/>
</g>
</svg>
