<?xml version="1.0" encoding="utf-8"?>
<!-- Generator: Adobe Illustrator 16.0.0, SVG Export Plug-In . SVG Version: 6.00 Build 0)  -->
<!DOCTYPE svg PUBLIC "-//W3C//DTD SVG 1.1//EN" "http://www.w3.org/Graphics/SVG/1.1/DTD/svg11.dtd">
<svg version="1.1" id="Слой_1" xmlns="http://www.w3.org/2000/svg" xmlns:xlink="http://www.w3.org/1999/xlink" x="0px" y="0px"
	 width="70px" height="70px" viewBox="0 0 70 70" enable-background="new 0 0 70 70" xml:space="preserve">
<path fill="#347982" d="M51.912,57.807H18.948c-3.87,0-7.018-3.148-7.018-7.018V17.825c0-3.87,3.147-7.018,7.018-7.018h32.964
	c3.869,0,7.018,3.148,7.018,7.018v32.964C58.93,54.658,55.781,57.807,51.912,57.807z M18.948,12.912
	c-2.709,0-4.913,2.204-4.913,4.914v32.964c0,2.709,2.204,4.913,4.913,4.913h32.964c2.708,0,4.912-2.204,4.912-4.913V17.825
	c0-2.71-2.204-4.914-4.912-4.914H18.948z"/>
<g>
	<path fill="#347982" d="M46.767,26.452H24.116c-1.033,0-1.878,0.846-1.878,1.878V31c0,1.033,0.846,1.879,1.878,1.879h0.286
		c-0.11,0.242-0.176,0.505-0.176,0.78v11.996c0,1.031,0.846,1.877,1.878,1.877h18.653c1.031,0,1.877-0.846,1.877-1.877V33.658
		c0-0.275-0.066-0.549-0.176-0.78h0.287c1.031,0,1.877-0.846,1.877-1.879v-2.669C48.646,27.298,47.81,26.452,46.767,26.452
		 M23.335,31v-2.669c0-0.428,0.352-0.78,0.78-0.78h10.776v4.229h-8.777h-1.999C23.688,31.78,23.335,31.428,23.335,31 M25.334,45.654
		V33.658c0-0.428,0.352-0.78,0.78-0.78h8.777v13.555h-8.777C25.686,46.434,25.334,46.082,25.334,45.654 M45.546,33.658v11.996
		c0,0.428-0.35,0.779-0.779,0.779h-8.776V32.878h8.776C45.196,32.878,45.546,33.23,45.546,33.658 M47.546,31
		c0,0.429-0.352,0.781-0.779,0.781h-2h-8.776v-4.229h10.776c0.428,0,0.779,0.352,0.779,0.78V31z"/>
	<path fill="#347982" d="M44.757,47.91H26.104c-1.244,0-2.256-1.014-2.256-2.256V33.658c0-0.138,0.014-0.276,0.041-0.413
		C22.75,33.13,21.859,32.167,21.859,31v-2.669c0-1.244,1.012-2.256,2.256-2.256h22.651c0.611,0,1.18,0.238,1.604,0.672
		c0.418,0.428,0.643,0.994,0.631,1.593V31c0,1.167-0.893,2.13-2.029,2.246c0.027,0.137,0.041,0.277,0.041,0.413v11.996
		C47.013,46.896,45.999,47.91,44.757,47.91z M24.116,26.831c-0.828,0-1.5,0.673-1.5,1.5V31c0,0.828,0.673,1.5,1.5,1.5h0.872
		l-0.243,0.535c-0.094,0.207-0.142,0.417-0.142,0.624v11.996c0,0.826,0.673,1.5,1.5,1.5h18.653c0.826,0,1.5-0.674,1.5-1.5V33.658
		c0-0.211-0.051-0.429-0.139-0.618L45.86,32.5h0.885c0.826,0,1.5-0.673,1.5-1.5v-2.669c0.008-0.402-0.141-0.774-0.416-1.056
		c-0.279-0.287-0.656-0.444-1.062-0.444H24.116z M44.767,46.812h-9.155V32.5h9.155c0.639,0,1.158,0.52,1.158,1.158v11.996
		C45.925,46.291,45.405,46.812,44.767,46.812z M36.368,46.055h8.398c0.219,0,0.402-0.184,0.402-0.4V33.658
		c0-0.218-0.184-0.402-0.402-0.402h-8.398V46.055z M35.269,46.812h-9.155c-0.638,0-1.158-0.521-1.158-1.158V33.658
		c0-0.638,0.52-1.158,1.158-1.158h9.155V46.812z M26.114,33.256c-0.218,0-0.401,0.184-0.401,0.402v11.996
		c0,0.217,0.184,0.4,0.401,0.4h8.399V33.256H26.114z M46.767,32.157H35.612v-4.984h11.155c0.639,0,1.158,0.519,1.158,1.158V31
		C47.925,31.639,47.405,32.157,46.767,32.157z M36.368,31.402h10.398c0.219,0,0.402-0.184,0.402-0.402v-2.669
		c0-0.218-0.184-0.402-0.402-0.402H36.368V31.402z M35.269,32.157H24.116c-0.639,0-1.158-0.519-1.158-1.158v-2.669
		c0-0.639,0.52-1.158,1.158-1.158h11.153V32.157z M24.116,27.929c-0.218,0-0.402,0.184-0.402,0.402V31
		c0,0.219,0.184,0.402,0.402,0.402h10.397v-3.473H24.116z"/>
	<path fill="#347982" d="M29.267,24.574c1.34,0.297,3.241,0.308,5.866,0.308h0.11h0.11c4.723,0,8.635-0.22,8.635-2.868
		c0-0.494-0.121-0.955-0.352-1.351c-0.549-0.966-1.658-1.538-2.977-1.538c-2.416,0-4.186,1.867-5.229,3.361
		c-1.032-1.494-2.812-3.35-5.218-3.35c-1.889,0-3.317,1.23-3.317,2.855C26.895,23.376,27.674,24.211,29.267,24.574 M35.913,23.783
		c0.792-1.329,2.461-3.559,4.756-3.559c0.912,0,1.67,0.363,2.023,0.978c0.131,0.23,0.195,0.505,0.195,0.812
		C42.888,23.245,40.923,23.75,35.913,23.783 M30.223,20.235c2.285,0,3.954,2.218,4.746,3.547c-2.384,0-4.262-0.01-5.46-0.274
		c-1.263-0.285-1.516-0.791-1.516-1.516C27.993,20.971,28.927,20.235,30.223,20.235"/>
	<path fill="#347982" d="M35.353,25.26h-0.22c-2.811,0-4.614-0.021-5.947-0.317c-1.772-0.402-2.669-1.395-2.669-2.95
		c0-1.843,1.589-3.234,3.695-3.234c1.342,0,3.308,0.549,5.22,3.085c1.144-1.5,2.905-3.096,5.228-3.096
		c1.455,0,2.689,0.646,3.305,1.729c0.262,0.449,0.4,0.981,0.4,1.538c0,1.411-0.926,2.325-2.832,2.794
		C40.009,25.183,37.96,25.26,35.353,25.26z M30.212,19.515c-1.676,0-2.94,1.065-2.94,2.478c0,1.204,0.642,1.886,2.079,2.213
		c1.257,0.278,3.023,0.298,5.782,0.298h0.22c4.518,0,8.256-0.188,8.256-2.489c0-0.422-0.102-0.824-0.299-1.161
		c-0.482-0.847-1.473-1.351-2.65-1.351c-1.225,0-3.072,0.556-4.919,3.2l-0.312,0.446l-0.309-0.448
		C34.114,21.248,32.447,19.515,30.212,19.515z M35.246,24.165l0.003-0.004h-0.28c-2.57,0-4.344-0.019-5.541-0.283
		c-1.288-0.292-1.813-0.837-1.813-1.886c0-1.237,1.097-2.135,2.608-2.135c2.479,0,4.241,2.338,5.07,3.732l0.148,0.248l0.146-0.248
		c0.833-1.399,2.599-3.744,5.082-3.744c1.055,0,1.932,0.437,2.35,1.168c0.164,0.287,0.248,0.624,0.248,1
		c0,1.53-1.992,2.112-7.351,2.146L35.246,24.165z M30.223,20.613c-1.091,0-1.852,0.567-1.852,1.379c0,0.51,0.087,0.892,1.221,1.148
		c1.016,0.224,2.537,0.259,4.688,0.264C33.445,22.17,32.032,20.613,30.223,20.613z M40.669,20.603c-1.811,0-3.225,1.557-4.062,2.794
		c4.023-0.069,5.904-0.513,5.904-1.383c0-0.243-0.049-0.454-0.148-0.625C42.081,20.896,41.448,20.603,40.669,20.603z"/>
</g>
</svg>
