<?xml version="1.0" encoding="utf-8"?>
<!-- Generator: Adobe Illustrator 16.0.0, SVG Export Plug-In . SVG Version: 6.00 Build 0)  -->
<!DOCTYPE svg PUBLIC "-//W3C//DTD SVG 1.1//EN" "http://www.w3.org/Graphics/SVG/1.1/DTD/svg11.dtd">
<svg version="1.1" id="Слой_1" xmlns="http://www.w3.org/2000/svg" xmlns:xlink="http://www.w3.org/1999/xlink" x="0px" y="0px"
	 width="70px" height="70px" viewBox="0 0 70 70" enable-background="new 0 0 70 70" xml:space="preserve">
<path fill="#347982" d="M51.912,57.807H18.948c-3.87,0-7.018-3.148-7.018-7.018V17.825c0-3.87,3.147-7.018,7.018-7.018h32.964
	c3.869,0,7.018,3.148,7.018,7.018v32.964C58.93,54.658,55.781,57.807,51.912,57.807z M18.948,12.912
	c-2.709,0-4.913,2.204-4.913,4.914v32.964c0,2.709,2.204,4.913,4.913,4.913h32.964c2.708,0,4.912-2.204,4.912-4.913V17.825
	c0-2.71-2.204-4.914-4.912-4.914H18.948z"/>
<g>
	<path fill="#347982" d="M34.997,36.707l-4.322-4.498l-1.388,1.335l5.042,5.235c0.176,0.194,0.422,0.299,0.686,0.299
		c0.263,0,0.51-0.104,0.686-0.299l7.871-8.205l-1.388-1.335L34.997,36.707z M24.508,27.747c0-0.861,0.053-1.758,0.175-2.654
		c2.073-0.316,7.977-1.37,11.175-3.9c3.337,2.441,9.083,3.549,11.139,3.882c0.088,0.756,0.192,1.951,0.192,2.672
		c-0.017,8.01-4.34,15.32-11.35,19.221C28.83,43.067,24.508,35.757,24.508,27.747 M35.137,19.261
		c-3.075,3.021-11.35,4.023-11.438,4.023c-0.422,0.052-0.773,0.386-0.844,0.808c-0.193,1.229-0.281,2.459-0.281,3.655
		c0,8.872,4.902,16.988,12.808,21.152c0.141,0.07,0.298,0.105,0.439,0.105c0.158,0,0.3-0.035,0.439-0.105
		c7.906-4.164,12.809-12.263,12.809-21.152c0-1.23-0.265-3.532-0.281-3.62c-0.018-0.439-0.369-0.773-0.809-0.843
		c-0.088-0.018-8.188-1.107-11.542-4.059c-0.178-0.161-0.404-0.24-0.631-0.24C35.564,18.985,35.32,19.078,35.137,19.261"/>
	<path fill="#347982" d="M35.822,49.34c-0.198,0-0.407-0.049-0.589-0.14C27.216,44.978,22.24,36.758,22.24,27.747
		c0-1.254,0.096-2.501,0.285-3.707c0.096-0.572,0.562-1.018,1.134-1.089c0.099-0.008,8.276-1.014,11.244-3.93
		c0.456-0.459,1.273-0.484,1.761-0.045c2.984,2.625,9.948,3.766,11.313,3.968c0.676,0.107,1.124,0.585,1.147,1.169
		c0.017,0.068,0.281,2.379,0.281,3.633c0,9.011-4.977,17.23-12.987,21.449C36.222,49.295,36.029,49.34,35.822,49.34z M35.807,19.321
		c-0.165,0-0.319,0.063-0.432,0.177C32.153,22.663,23.774,23.62,23.7,23.62c-0.234,0.031-0.467,0.254-0.513,0.528
		c-0.183,1.168-0.276,2.38-0.276,3.6c0,8.761,4.839,16.753,12.629,20.855c0.175,0.086,0.388,0.09,0.573-0.004
		c7.783-4.099,12.622-12.091,12.622-20.852c0-1.173-0.249-3.397-0.275-3.562c-0.016-0.306-0.232-0.522-0.532-0.57
		c-1.446-0.214-8.581-1.385-11.711-4.138C36.104,19.375,35.959,19.321,35.807,19.321z M35.84,47.352l-0.163-0.091
		c-7.096-3.948-11.504-11.426-11.504-19.514c0-0.925,0.06-1.833,0.179-2.699l0.034-0.249l0.248-0.038
		c2.299-0.35,7.975-1.425,11.017-3.831l0.201-0.159l0.207,0.151c3.232,2.365,8.766,3.461,10.993,3.822l0.251,0.041l0.029,0.252
		c0.094,0.807,0.194,2,0.194,2.71c-0.017,8.091-4.432,15.569-11.521,19.514L35.84,47.352z M24.984,25.386
		c-0.093,0.761-0.141,1.554-0.141,2.361c0,7.782,4.208,14.982,10.997,18.836c6.782-3.851,10.998-11.051,11.015-18.837
		c0-0.614-0.08-1.613-0.163-2.381c-2.367-0.399-7.575-1.489-10.826-3.754C32.87,23.854,27.886,24.927,24.984,25.386z M35.014,39.413
		c-0.363,0-0.694-0.145-0.934-0.408l-5.268-5.47l1.872-1.801l4.313,4.488l7.176-7.457l1.871,1.8l-8.103,8.446
		C35.708,39.269,35.377,39.413,35.014,39.413z M29.761,33.553l4.809,4.994c0.235,0.258,0.661,0.251,0.881,0.007l7.646-7.97
		l-0.904-0.87l-7.196,7.477l-4.332-4.507L29.761,33.553z"/>
</g>
</svg>
