<?xml version="1.0" encoding="utf-8"?>
<!-- Generator: Adobe Illustrator 16.0.0, SVG Export Plug-In . SVG Version: 6.00 Build 0)  -->
<!DOCTYPE svg PUBLIC "-//W3C//DTD SVG 1.1//EN" "http://www.w3.org/Graphics/SVG/1.1/DTD/svg11.dtd">
<svg version="1.1" id="Слой_1" xmlns="http://www.w3.org/2000/svg" xmlns:xlink="http://www.w3.org/1999/xlink" x="0px" y="0px"
	 width="70px" height="70px" viewBox="0 0 70 70" enable-background="new 0 0 70 70" xml:space="preserve">
<path fill="#7C7D7E" d="M51.899,57.807H18.935c-3.87,0-7.018-3.148-7.018-7.018V17.825c0-3.87,3.147-7.018,7.018-7.018h32.965
	c3.869,0,7.018,3.148,7.018,7.018v32.964C58.917,54.658,55.769,57.807,51.899,57.807z M18.935,12.912
	c-2.709,0-4.913,2.204-4.913,4.914v32.964c0,2.709,2.204,4.913,4.913,4.913h32.965c2.708,0,4.912-2.204,4.912-4.913V17.825
	c0-2.71-2.204-4.914-4.912-4.914H18.935z"/>
<g>
	<path fill-rule="evenodd" clip-rule="evenodd" fill="#7C7D7E" d="M47.363,39.005L47.363,39.005
		c-0.001-0.104-0.007-0.209-0.013-0.312c-0.004-0.117-0.009-0.233-0.014-0.349c-0.151-4.068-0.298-8.135-0.462-12.202
		c-0.057-1.367-0.945-2.208-2.308-2.233c-0.793-0.013-1.586-0.002-2.407-0.002c-0.334-3.458-3.143-5.816-6.116-5.833
		c-1.398-0.008-2.688,0.363-3.782,1.218c-1.481,1.157-2.38,2.683-2.542,4.614c-0.805,0-1.582-0.007-2.356,0.001
		c-1.419,0.017-2.312,0.871-2.378,2.281c-0.033,0.708-0.04,1.418-0.067,2.127c-0.219,5.803-0.447,11.607-0.641,17.412
		c-0.015,0.409,0.148,0.865,0.353,1.232c0.463,0.83,1.276,1.03,2.167,1.029c2.731-0.002,5.462-0.002,8.195-0.002v0.001
		c0.319,0,0.639,0,0.959,0c0.32,0,0.64,0,0.959,0v-0.001c2.732,0,5.463,0,8.194,0.002c0.892,0.001,1.703-0.199,2.167-1.029
		c0.203-0.367,0.367-0.823,0.354-1.232C47.561,43.832,47.454,41.268,47.363,39.005z M41.386,28.667
		c0.414-0.013,0.756,0.31,0.754,0.715c-0.001,0.384-0.312,0.699-0.707,0.711c-0.407,0.013-0.758-0.318-0.757-0.714
		C40.677,28.999,40.996,28.679,41.386,28.667z M35.833,19.543c2.521-0.043,4.798,1.996,4.804,4.334c-3.113,0-6.226,0-9.379,0
		C31.174,21.698,33.419,19.584,35.833,19.543z M30.435,28.667c0.414-0.019,0.758,0.3,0.762,0.704
		c0.004,0.385-0.304,0.704-0.697,0.72c-0.41,0.018-0.761-0.306-0.765-0.706C29.729,29.008,30.045,28.684,30.435,28.667z
		 M45.194,46.513c-1.452,0.006-2.903,0.003-4.355,0.003c-1.31,0-2.619,0-3.929-0.003v-0.004c-0.319,0.001-0.639,0.001-0.959,0.002
		c-0.321-0.001-0.641-0.001-0.959-0.002v0.004c-1.311,0.003-2.62,0.003-3.929,0.003c-1.453,0-2.904,0.003-4.357-0.003
		c-0.791-0.002-0.988-0.208-0.958-0.997c0.236-6.412,0.473-12.824,0.711-19.236c0.024-0.64,0.203-0.882,0.774-0.905
		c0.807-0.032,1.616-0.008,2.495-0.008c0,0.62,0.018,1.205-0.015,1.786c-0.007,0.117-0.186,0.252-0.314,0.33
		c-0.866,0.524-1.305,1.502-1.066,2.416c0.247,0.952,1.064,1.609,2.063,1.658c0.935,0.045,1.807-0.552,2.148-1.473
		c0.333-0.897-0.04-2.04-0.891-2.509c-0.378-0.207-0.477-0.448-0.454-0.836c0.027-0.436,0.006-0.874,0.006-1.343
		c3.164,0,6.279,0,9.467,0c0,0.598,0.021,1.155-0.014,1.708c-0.011,0.134-0.183,0.294-0.319,0.378
		c-0.862,0.527-1.301,1.505-1.063,2.418c0.256,0.981,1.17,1.683,2.167,1.661c0.997-0.021,1.842-0.691,2.104-1.672
		c0.23-0.87-0.178-1.884-0.994-2.343c-0.307-0.171-0.435-0.357-0.412-0.708c0.029-0.469,0.008-0.941,0.008-1.438
		c0.921,0,1.794-0.022,2.664,0.01c0.461,0.016,0.597,0.375,0.612,0.786c0.1,2.648,0.199,5.298,0.299,7.947
		c0.047,1.234,0.094,2.469,0.138,3.704l-0.007,0.007c0.094,2.542,0.209,5.121,0.303,7.663
		C46.185,46.305,45.986,46.511,45.194,46.513z"/>
	<path fill="#7C7D7E" d="M45.111,48.24L45.111,48.24l-10.12-0.001c-2.731,0-5.463-0.001-8.195,0.001c-0.75,0-1.806-0.12-2.385-1.157
		c-0.152-0.273-0.404-0.812-0.384-1.363c0.156-4.649,0.333-9.299,0.51-13.948l0.131-3.464c0.012-0.31,0.02-0.619,0.028-0.928
		c0.01-0.401,0.021-0.801,0.04-1.202c0.073-1.535,1.079-2.5,2.625-2.519c0.283-0.003,0.565-0.004,0.849-0.004l1.283,0.002
		c0.211-1.836,1.09-3.369,2.615-4.561c1.079-0.844,2.387-1.271,3.89-1.271c3.27,0.018,5.958,2.509,6.386,5.832l1.299-0.004
		c0.297,0,0.593,0.001,0.889,0.006c1.514,0.028,2.491,0.975,2.554,2.473c0.128,3.188,0.246,6.375,0.364,9.562l0.111,2.989
		c0.006,0.101,0.012,0.209,0.014,0.315l0.063,1.577c0.072,1.814,0.147,3.678,0.197,5.143c0.019,0.547-0.233,1.089-0.385,1.362
		C46.91,48.12,45.854,48.24,45.111,48.24z M40.305,47.738c1.601,0,3.2,0.001,4.8,0.002l0.007,0.25v-0.25
		c0.994,0,1.594-0.278,1.942-0.901c0.214-0.388,0.332-0.79,0.321-1.102c-0.053-1.544-0.133-3.529-0.21-5.435l-0.052-1.288
		c-0.001-0.107-0.007-0.208-0.013-0.307l-0.111-2.995c-0.118-3.187-0.235-6.374-0.364-9.56c-0.051-1.226-0.821-1.971-2.062-1.993
		c-0.292-0.005-0.585-0.006-0.88-0.006l-1.749,0.004l-0.022-0.226c-0.307-3.179-2.83-5.589-5.868-5.606c-0.001,0-0.001,0-0.001,0
		c-1.433,0-2.637,0.392-3.626,1.165c-1.474,1.152-2.296,2.645-2.447,4.438l-0.019,0.229l-1.74-0.003
		c-0.282,0-0.563,0.001-0.844,0.004c-1.293,0.016-2.07,0.76-2.131,2.042c-0.019,0.397-0.029,0.794-0.039,1.191
		c-0.008,0.312-0.016,0.623-0.028,0.934l-0.132,3.464c-0.177,4.648-0.354,9.297-0.509,13.946c-0.011,0.313,0.105,0.716,0.321,1.102
		c0.348,0.623,0.947,0.901,1.942,0.901l8.201-0.002l1.918,0.001C38.042,47.739,39.174,47.738,40.305,47.738z M43.017,46.767
		l-2.178-0.001c-1.31,0-2.619,0-3.93-0.003l-0.479-0.003l-0.479,0.001l-0.764-0.002l-0.196,0.004
		c-1.311,0.003-2.621,0.003-3.929,0.003l-2.179,0.001c-0.726,0-1.453-0.001-2.18-0.004c-0.363-0.001-0.731-0.035-0.966-0.28
		c-0.235-0.244-0.255-0.613-0.241-0.977c0.236-6.411,0.473-12.823,0.711-19.235c0.021-0.575,0.16-1.112,1.015-1.146
		c0.329-0.013,0.658-0.017,0.993-0.017l0.731,0.004c0.255,0.002,0.514,0.004,0.78,0.004h0.25l0.002,0.732
		c0.003,0.45,0.006,0.885-0.018,1.317c-0.011,0.183-0.156,0.361-0.433,0.53c-0.782,0.473-1.165,1.333-0.955,2.139
		c0.221,0.85,0.94,1.427,1.833,1.472l0.087,0.002c0.794,0,1.523-0.527,1.814-1.312c0.296-0.798-0.06-1.808-0.777-2.204
		c-0.438-0.239-0.613-0.56-0.583-1.07c0.018-0.295,0.014-0.591,0.009-0.897l-0.004-0.681h9.967l0.003,0.739
		c0.005,0.425,0.009,0.827-0.018,1.235c-0.024,0.307-0.369,0.534-0.438,0.576c-0.779,0.477-1.161,1.337-0.952,2.142
		c0.223,0.854,1.013,1.474,1.879,1.474c0.925-0.02,1.676-0.617,1.908-1.487c0.206-0.778-0.17-1.665-0.875-2.061
		c-0.406-0.227-0.567-0.508-0.539-0.942c0.02-0.321,0.015-0.645,0.011-0.977l-0.004-0.695l1.819-0.008
		c0.37,0,0.737,0.004,1.104,0.018c0.305,0.011,0.82,0.158,0.854,1.026l0.299,7.947c0.047,1.243,0.094,2.473,0.138,3.705l0.004,0.108
		l-0.007,0.007c0.046,1.235,0.097,2.479,0.147,3.722c0.052,1.28,0.104,2.562,0.151,3.833c0.014,0.361-0.007,0.73-0.242,0.976
		s-0.604,0.279-0.968,0.28C44.469,46.766,43.743,46.767,43.017,46.767z M37.16,46.264c1.227,0.002,2.452,0.002,3.679,0.002
		l2.178,0.001c0.726,0,1.451-0.001,2.177-0.004c0.333-0.001,0.527-0.041,0.609-0.127s0.115-0.279,0.103-0.61
		c-0.047-1.271-0.099-2.551-0.151-3.831c-0.052-1.28-0.104-2.562-0.151-3.833l-0.004-0.108l0.007-0.007
		c-0.042-1.195-0.088-2.389-0.133-3.582l-0.3-7.96c-0.021-0.533-0.248-0.541-0.371-0.545c-0.361-0.014-0.722-0.018-1.086-0.018
		l-1.317,0.007l0.002,0.189c0.005,0.345,0.009,0.681-0.012,1.015c-0.016,0.239,0.045,0.341,0.284,0.474
		c0.897,0.504,1.377,1.633,1.113,2.625c-0.29,1.087-1.23,1.834-2.339,1.858c-0.001,0-0.001,0-0.002,0
		c-1.141,0-2.134-0.777-2.413-1.848c-0.265-1.02,0.207-2.103,1.175-2.694c0.106-0.065,0.191-0.159,0.203-0.195
		c0.022-0.375,0.019-0.768,0.014-1.184l-0.001-0.244h-8.966l0.001,0.174c0.004,0.319,0.009,0.627-0.01,0.935
		c-0.019,0.318,0.054,0.454,0.325,0.602c0.938,0.518,1.389,1.781,1.005,2.815c-0.363,0.98-1.28,1.638-2.283,1.638l-0.112-0.003
		c-1.116-0.055-2.016-0.779-2.293-1.845c-0.266-1.022,0.208-2.104,1.179-2.692c0.123-0.075,0.188-0.141,0.202-0.165
		c0.016-0.387,0.012-0.812,0.009-1.251l-0.001-0.236c-0.181-0.001-0.36-0.002-0.536-0.004l-0.727-0.004
		c-0.328,0-0.65,0.004-0.973,0.017c-0.396,0.015-0.514,0.104-0.534,0.664c-0.239,6.412-0.476,12.823-0.711,19.235
		c-0.013,0.332,0.02,0.526,0.102,0.611c0.083,0.086,0.275,0.126,0.607,0.127c0.727,0.003,1.453,0.004,2.178,0.004l2.179-0.001
		c1.226,0,2.452,0,3.679-0.002v-0.002l0.251-0.003l0.959,0.002l1.208-0.003V46.264z M41.438,30.343c-0.29,0-0.545-0.107-0.73-0.293
		c-0.183-0.183-0.283-0.422-0.282-0.672c0.001-0.513,0.429-0.944,0.952-0.961l0.032,0c0.267,0,0.516,0.103,0.701,0.29
		c0.181,0.182,0.279,0.422,0.278,0.677c-0.001,0.522-0.418,0.944-0.949,0.96C41.439,30.343,41.439,30.343,41.438,30.343z
		 M41.41,28.666l-0.017,0.25c-0.257,0.008-0.467,0.216-0.468,0.462c0,0.117,0.048,0.229,0.136,0.318
		c0.094,0.093,0.22,0.146,0.349,0.146c0.274-0.008,0.479-0.211,0.479-0.462c0.001-0.122-0.047-0.236-0.133-0.322
		c-0.092-0.092-0.215-0.143-0.347-0.143V28.666z M30.508,30.342c-0.578,0-1.018-0.428-1.023-0.953
		c-0.007-0.513,0.414-0.949,0.939-0.971l0.045-0.001c0.534,0,0.973,0.427,0.978,0.953c0.005,0.523-0.406,0.951-0.937,0.973
		C30.51,30.342,30.509,30.342,30.508,30.342z M30.469,28.667l-0.023,0.25c-0.254,0.011-0.465,0.224-0.461,0.466
		c0.002,0.25,0.224,0.459,0.483,0.459c0.281-0.011,0.481-0.216,0.479-0.468s-0.217-0.458-0.478-0.458V28.667z M40.888,24.127h-9.871
		l-0.009-0.241c-0.039-1.029,0.395-2.078,1.223-2.953c0.951-1.005,2.296-1.618,3.598-1.641l0.083,0c2.645,0,4.97,2.142,4.976,4.584
		L40.888,24.127z M31.508,23.627h8.869c-0.157-2.07-2.179-3.835-4.466-3.835l-0.074,0c-1.171,0.02-2.383,0.575-3.244,1.484
		C31.925,21.984,31.545,22.81,31.508,23.627z"/>
</g>
</svg>
