<?xml version="1.0" encoding="utf-8"?>
<!-- Generator: Adobe Illustrator 16.0.0, SVG Export Plug-In . SVG Version: 6.00 Build 0)  -->
<!DOCTYPE svg PUBLIC "-//W3C//DTD SVG 1.1//EN" "http://www.w3.org/Graphics/SVG/1.1/DTD/svg11.dtd">
<svg version="1.1" id="Слой_1" xmlns="http://www.w3.org/2000/svg" xmlns:xlink="http://www.w3.org/1999/xlink" x="0px" y="0px"
	 width="70px" height="70px" viewBox="0 0 70 70" enable-background="new 0 0 70 70" xml:space="preserve">
<path fill="#7C7D7E" d="M51.899,57.807H18.935c-3.87,0-7.018-3.148-7.018-7.018V17.825c0-3.87,3.147-7.018,7.018-7.018h32.965
	c3.869,0,7.018,3.148,7.018,7.018v32.964C58.917,54.658,55.769,57.807,51.899,57.807z M18.935,12.912
	c-2.709,0-4.913,2.204-4.913,4.914v32.964c0,2.709,2.204,4.913,4.913,4.913h32.965c2.708,0,4.912-2.204,4.912-4.913V17.825
	c0-2.71-2.204-4.914-4.912-4.914H18.935z"/>
<g>
	<path fill="#7C7D7E" d="M29.479,45.824c-0.028-0.017-0.056-0.034-0.084-0.051c-0.056-0.033-0.111-0.061-0.167-0.095
		c-0.067-0.039-0.129-0.078-0.196-0.117c-0.016-0.012-0.033-0.022-0.05-0.027c-0.972-0.592-1.859-1.308-2.642-2.123
		c1.061-0.441,2.15-0.804,3.25-1.095c0.229,0.581,0.486,1.14,0.771,1.659c0.765,1.413,1.676,2.479,2.67,3.172
		C31.785,46.88,30.59,46.433,29.479,45.824 M41.174,43.976c0.285-0.52,0.536-1.072,0.771-1.659c1.105,0.285,2.189,0.648,3.25,1.095
		c-0.781,0.815-1.669,1.531-2.642,2.123c-0.017,0.011-0.033,0.016-0.045,0.027c-0.066,0.039-0.134,0.078-0.201,0.117
		c-0.056,0.034-0.105,0.062-0.161,0.09c-0.028,0.017-0.062,0.033-0.09,0.05c-1.111,0.614-2.307,1.062-3.552,1.329
		C39.498,46.461,40.409,45.389,41.174,43.976 M30.896,43.685c-0.256-0.475-0.49-0.978-0.703-1.513
		c1.715-0.403,3.474-0.615,5.268-0.631v5.887C33.751,47.287,32.143,45.97,30.896,43.685 M36.075,41.541
		c1.792,0.021,3.553,0.234,5.267,0.631c-0.212,0.53-0.446,1.033-0.704,1.513c-1.239,2.285-2.854,3.603-4.562,3.743V41.541z
		 M42.163,41.741c0.737-2.089,1.145-4.507,1.178-7.038h5.491c-0.078,3.146-1.273,6.011-3.195,8.233
		C44.504,42.445,43.341,42.049,42.163,41.741 M36.075,40.926v-6.228h6.652c-0.034,2.485-0.437,4.859-1.162,6.892
		C39.772,41.166,37.94,40.948,36.075,40.926 M22.703,34.692h5.491v0.006c0.033,2.536,0.441,4.954,1.179,7.037
		c-1.179,0.308-2.341,0.71-3.475,1.19C23.972,40.708,22.782,37.837,22.703,34.692 M28.809,34.692h6.652v0.006v6.222
		c-1.865,0.022-3.697,0.246-5.491,0.665C29.244,39.552,28.842,37.184,28.809,34.692 M29.97,27.147
		c1.794,0.424,3.626,0.642,5.491,0.664v6.271h-6.652C28.837,31.582,29.244,29.196,29.97,27.147 M36.075,27.812
		c1.865-0.022,3.697-0.246,5.49-0.664c0.731,2.044,1.134,4.435,1.162,6.936h-6.652V27.812z M25.903,25.806
		c1.129,0.486,2.291,0.883,3.47,1.19c-0.743,2.101-1.151,4.535-1.179,7.087h-5.491C22.771,30.922,23.966,28.035,25.903,25.806
		 M42.163,26.996c1.178-0.308,2.341-0.709,3.474-1.19c1.933,2.229,3.128,5.116,3.2,8.277h-5.496
		C43.313,31.536,42.906,29.097,42.163,26.996 M41.18,24.772c-0.766-1.412-1.675-2.485-2.67-3.172
		c1.24,0.268,2.436,0.715,3.547,1.324c0.028,0.005,0.062,0.021,0.095,0.044c0.051,0.027,0.106,0.062,0.156,0.089
		c0.067,0.04,0.135,0.079,0.201,0.123c0.018,0.012,0.028,0.018,0.045,0.028c0.973,0.592,1.86,1.308,2.647,2.128
		c-1.062,0.441-2.15,0.805-3.251,1.095C41.722,25.852,41.465,25.292,41.18,24.772 M26.34,25.326c0.782-0.815,1.67-1.531,2.642-2.123
		c0.017-0.011,0.028-0.017,0.045-0.027c0.066-0.039,0.134-0.078,0.201-0.118c0.05-0.027,0.105-0.062,0.156-0.089
		c0.033-0.017,0.061-0.033,0.095-0.05c1.111-0.614,2.312-1.062,3.553-1.329c-0.994,0.687-1.905,1.759-2.67,3.172
		c-0.285,0.52-0.536,1.072-0.771,1.659C28.484,26.136,27.4,25.772,26.34,25.326 M30.193,26.566c0.213-0.531,0.447-1.039,0.703-1.514
		c1.24-2.285,2.854-3.603,4.564-3.743v5.887C33.667,27.175,31.908,26.962,30.193,26.566 M36.075,21.31
		c1.708,0.141,3.317,1.458,4.562,3.743c0.258,0.475,0.492,0.978,0.704,1.514c-1.714,0.396-3.479,0.608-5.267,0.63V21.31z
		 M35.41,20.69h-0.033c-3.508,0.101-6.792,1.508-9.283,4.005c-0.19,0.189-0.38,0.391-0.559,0.592l-0.234,0.263h0.006
		c-2.089,2.463-3.223,5.558-3.223,8.819c0,3.261,1.134,6.355,3.223,8.818h-0.006l0.234,0.257c0.179,0.201,0.368,0.403,0.559,0.598
		c2.491,2.492,5.775,3.904,9.283,4.005h0.033c0.117,0.006,0.24,0.006,0.357,0.006s0.24,0,0.357-0.006h0.033
		c3.508-0.101,6.792-1.508,9.283-4.005c0.195-0.194,0.38-0.391,0.559-0.598l0.234-0.257h-0.006c2.09-2.463,3.223-5.558,3.223-8.818
		c0-3.262-1.133-6.356-3.223-8.819h0.006L46,25.287c-0.179-0.201-0.363-0.402-0.559-0.592c-2.491-2.497-5.775-3.904-9.283-4.005
		h-0.033c-0.117-0.006-0.24-0.006-0.357-0.006S35.527,20.685,35.41,20.69"/>
	<path fill="#7C7D7E" d="M35.768,48.553c-0.125,0-0.257,0-0.382-0.007c-3.656-0.104-7.073-1.578-9.645-4.15
		c-0.2-0.204-0.395-0.412-0.579-0.619l-0.994-1.089h0.111c-1.744-2.4-2.694-5.316-2.694-8.318c0-3.003,0.95-5.919,2.694-8.319H24.19
		l0.972-1.096c0.185-0.208,0.381-0.417,0.579-0.613c2.565-2.571,5.983-4.046,9.622-4.15c0.296-0.012,0.536-0.012,0.788,0
		c3.661,0.104,7.078,1.579,9.645,4.151c0.199,0.192,0.392,0.402,0.579,0.613l0.977,1.095h-0.094c1.744,2.4,2.694,5.315,2.694,8.319
		c0,3.003-0.95,5.919-2.694,8.318h0.104l-0.992,1.094c-0.178,0.206-0.371,0.412-0.575,0.615c-2.565,2.571-5.982,4.046-9.621,4.15
		C36.024,48.553,35.893,48.553,35.768,48.553z M36.575,42.053v4.786c1.339-0.34,2.609-1.523,3.623-3.393
		c0.157-0.294,0.308-0.6,0.448-0.914C39.312,42.258,37.946,42.098,36.575,42.053z M30.887,42.53c0.141,0.316,0.292,0.623,0.45,0.917
		c1.019,1.868,2.29,3.051,3.625,3.391v-4.787C33.586,42.092,32.22,42.253,30.887,42.53z M42.239,42.913
		c-0.205,0.481-0.412,0.91-0.627,1.303c-0.373,0.689-0.779,1.303-1.217,1.836c0.486-0.193,0.96-0.417,1.419-0.671l0.105-0.058
		c0.043-0.022,0.082-0.044,0.126-0.07l0.262-0.153c0.706-0.431,1.376-0.938,1.992-1.509C43.628,43.334,42.938,43.107,42.239,42.913z
		 M29.186,45.073l0.465,0.271c0.494,0.272,0.99,0.508,1.49,0.707c-0.439-0.535-0.846-1.148-1.219-1.837
		c-0.219-0.399-0.429-0.835-0.626-1.299c-0.705,0.199-1.393,0.426-2.057,0.678C27.838,44.148,28.491,44.646,29.186,45.073z
		 M42.806,41.398c0.919,0.261,1.819,0.574,2.686,0.934c1.657-2.031,2.646-4.533,2.817-7.129h-4.479
		C43.759,37.396,43.408,39.518,42.806,41.398z M23.227,35.192c0.173,2.606,1.161,5.109,2.818,7.131
		c0.894-0.364,1.794-0.677,2.686-0.931c-0.603-1.879-0.954-4.003-1.024-6.2H23.227z M36.575,40.437
		c1.586,0.049,3.15,0.238,4.662,0.566c0.571-1.746,0.906-3.734,0.979-5.805h-5.641V40.437z M29.321,35.192
		c0.071,2.069,0.405,4.059,0.977,5.807c1.53-0.329,3.094-0.52,4.663-0.568v-5.238H29.321z M43.831,33.583h4.483
		c-0.167-2.619-1.157-5.137-2.824-7.175c-0.888,0.363-1.788,0.675-2.685,0.931C43.413,29.232,43.765,31.37,43.831,33.583z
		 M36.575,33.583h5.642c-0.067-2.087-0.402-4.091-0.979-5.85c-1.529,0.328-3.094,0.519-4.662,0.567V33.583z M29.32,33.583h5.641
		v-5.282c-1.585-0.048-3.15-0.238-4.663-0.566C29.722,29.508,29.387,31.511,29.32,33.583z M23.225,33.583h4.48
		c0.066-2.211,0.417-4.35,1.025-6.244c-0.914-0.259-1.813-0.571-2.682-0.93C24.378,28.446,23.388,30.964,23.225,33.583z
		 M30.888,26.206c1.337,0.273,2.703,0.434,4.073,0.479v-4.787c-1.339,0.34-2.61,1.523-3.625,3.393
		C31.181,25.578,31.031,25.884,30.888,26.206z M36.575,21.899v4.786c1.371-0.045,2.736-0.206,4.073-0.479
		c-0.141-0.316-0.291-0.622-0.45-0.914C39.18,23.422,37.91,22.239,36.575,21.899z M40.402,22.697
		c0.436,0.533,0.843,1.146,1.217,1.837c0.22,0.399,0.43,0.835,0.626,1.299c0.701-0.198,1.39-0.424,2.059-0.678
		c-0.62-0.574-1.294-1.083-2.01-1.519l-0.211-0.13l0.153-0.489l-0.252,0.433l-0.168-0.086C41.357,23.112,40.886,22.89,40.402,22.697
		z M27.235,25.147c0.672,0.256,1.362,0.483,2.06,0.677c0.205-0.481,0.412-0.911,0.627-1.303c0.373-0.689,0.779-1.302,1.216-1.835
		c-0.486,0.193-0.96,0.417-1.418,0.67l-0.1,0.053l-0.393-0.352l0.255,0.43l-0.131,0.077l-0.348-0.375l0.253,0.431
		C28.529,24.064,27.854,24.574,27.235,25.147z"/>
</g>
</svg>
