<?xml version="1.0" encoding="utf-8"?>
<!-- Generator: Adobe Illustrator 16.0.0, SVG Export Plug-In . SVG Version: 6.00 Build 0)  -->
<!DOCTYPE svg PUBLIC "-//W3C//DTD SVG 1.1//EN" "http://www.w3.org/Graphics/SVG/1.1/DTD/svg11.dtd">
<svg version="1.1" id="Слой_1" xmlns="http://www.w3.org/2000/svg" xmlns:xlink="http://www.w3.org/1999/xlink" x="0px" y="0px"
	 width="70px" height="70px" viewBox="0 0 70 70" enable-background="new 0 0 70 70" xml:space="preserve">
<path fill="#7C7D7E" d="M51.899,57.807H18.935c-3.87,0-7.018-3.148-7.018-7.018V17.825c0-3.87,3.147-7.018,7.018-7.018h32.965
	c3.869,0,7.018,3.148,7.018,7.018v32.964C58.917,54.658,55.769,57.807,51.899,57.807z M18.935,12.912
	c-2.709,0-4.913,2.204-4.913,4.914v32.964c0,2.709,2.204,4.913,4.913,4.913h32.965c2.708,0,4.912-2.204,4.912-4.913V17.825
	c0-2.71-2.204-4.914-4.912-4.914H18.935z"/>
<g>
	<g>
		<path fill="#7C7D7E" d="M40.86,48.98c-0.054,0-0.105-0.009-0.155-0.022c-2.563-0.711-4.785-2.21-6.424-4.335
			c0.359-0.138,0.729-0.342,1.09-0.561c1.396,1.789,3.305,3.078,5.48,3.718c4.742-1.389,8.04-5.438,8.04-10.644l-0.001-8.703
			c-2.016-0.892-4.16-1.421-6.393-1.599l0.029-1.205c2.414,0.219,4.805,0.837,7.069,1.869c0.209,0.094,0.344,0.303,0.344,0.533
			l0.001,9.103c0,5.504-3.669,10.366-8.924,11.823c-0.05,0.014-0.103,0.021-0.155,0.021L40.86,48.98z M30.903,43.427
			c-0.053,0-0.104-0.009-0.154-0.021c-5.341-1.466-9.072-6.327-9.072-11.822v-9.104c0-0.229,0.136-0.44,0.347-0.534
			c2.804-1.264,5.792-1.906,8.879-1.906c3.087,0,6.075,0.642,8.88,1.906c0.211,0.094,0.347,0.304,0.347,0.534v9.104
			c0,5.495-3.729,10.356-9.07,11.822C31.008,43.418,30.957,43.427,30.903,43.427 M30.903,21.149c-2.69,0-5.393,0.574-8.034,1.705
			l-0.018,8.729c0,4.89,3.307,9.267,8.043,10.644c4.919-1.424,8.062-5.542,8.062-10.644v-8.701
			C36.297,21.721,33.595,21.149,30.903,21.149 M37.074,43.396c-0.174,0-0.333-0.079-0.45-0.225c0.413-0.271,0.781-0.579,1.121-0.894
			l6.117,0.01l0.031-0.733c-0.863-0.79-1.967-1.214-3.117-1.214c-0.53,0-1.055,0.091-1.561,0.272
			c0.422-0.436,0.774-0.936,1.086-1.435h0.001c0.143,0,0.308-0.011,0.477-0.011c1.555,0,3.017,0.605,4.114,1.707
			c0.113,0.11,0.174,0.258,0.174,0.414v1.523c0,0.323-0.266,0.584-0.586,0.584H37.074z M30.903,37.872
			c-1.556,0-3.017-0.605-4.117-1.706c-0.111-0.11-0.172-0.257-0.172-0.414v-1.523c0-0.323,0.264-0.586,0.587-0.586h7.404
			c0.325,0,0.587,0.264,0.587,0.586v1.523c0,0.157-0.061,0.304-0.172,0.414C33.921,37.267,32.46,37.872,30.903,37.872
			 M27.788,35.487c0.861,0.79,1.965,1.212,3.115,1.212c1.151,0,2.253-0.422,3.106-1.189l0.01-0.724l-6.232-0.031V35.487z
			 M44.305,35.349c-0.778,0-1.532-0.223-2.183-0.645c0.112-0.399,0.198-0.861,0.262-1.342c0.524,0.57,1.224,0.874,1.921,0.875
			c0.727,0,1.448-0.321,2.029-0.903l0.831,0.874c-0.766,0.72-1.781,1.14-2.86,1.14V35.349z M31.657,28.633
			c0.765-0.72,1.781-1.141,2.86-1.141c1.081,0,2.096,0.423,2.86,1.188l-0.852,0.808c-0.367-0.363-1.098-0.944-2.008-0.944
			c-0.927,0-1.669,0.604-2.031,0.964L31.657,28.633z M24.438,28.633c0.766-0.72,1.78-1.141,2.858-1.141
			c1.081,0,2.096,0.423,2.86,1.188l-0.852,0.808c-0.578-0.57-1.29-0.883-2.009-0.883c-0.727,0-1.447,0.321-2.029,0.902l-0.83-0.873
			L24.438,28.633z"/>
		<path fill="#7C7D7E" d="M40.86,49.08c-0.059,0-0.118-0.008-0.182-0.025c-2.585-0.717-4.825-2.229-6.477-4.37l-0.082-0.106
			l0.125-0.049c0.302-0.115,0.644-0.291,1.074-0.553l0.076-0.046l0.055,0.07c1.377,1.764,3.244,3.034,5.401,3.675
			c4.824-1.425,7.94-5.559,7.94-10.539l-0.001-8.638c-1.967-0.862-4.086-1.388-6.301-1.564l-0.095-0.007l0.034-1.407l0.106,0.01
			c2.47,0.224,4.859,0.855,7.102,1.878c0.244,0.109,0.402,0.354,0.402,0.624l0.001,9.103c0,5.549-3.699,10.451-8.997,11.92
			c-0.052,0.014-0.105,0.022-0.157,0.024L40.86,49.08z M34.442,44.666c1.617,2.053,3.79,3.502,6.29,4.195
			c0.038,0.011,0.073,0.017,0.106,0.019h0.024c0.042,0,0.086-0.007,0.129-0.019c5.211-1.444,8.851-6.267,8.851-11.727l-0.001-9.103
			c0-0.19-0.112-0.364-0.285-0.441c-2.19-0.999-4.521-1.621-6.931-1.851l-0.024,1.004c2.226,0.187,4.354,0.725,6.33,1.599
			l0.06,0.026l0.001,8.768c0,5.081-3.184,9.297-8.111,10.739l-0.028,0.009l-0.028-0.009c-2.182-0.642-4.073-1.914-5.476-3.683
			C34.998,44.402,34.705,44.556,34.442,44.666z M30.903,43.526c-0.056,0-0.113-0.008-0.179-0.024
			c-5.386-1.479-9.147-6.379-9.147-11.919v-9.104c0-0.27,0.159-0.515,0.406-0.625c2.818-1.271,5.819-1.915,8.92-1.915
			c3.101,0,6.103,0.645,8.921,1.915c0.246,0.109,0.405,0.355,0.405,0.625v9.104c0,5.54-3.76,10.441-9.144,11.919
			C31.016,43.519,30.959,43.526,30.903,43.526z M30.903,20.139c-3.072,0-6.046,0.638-8.838,1.897
			c-0.175,0.078-0.288,0.252-0.288,0.443v9.104c0,5.45,3.7,10.271,8.998,11.726c0.095,0.025,0.157,0.025,0.26,0
			c5.294-1.453,8.995-6.275,8.995-11.726v-9.104c0-0.191-0.113-0.365-0.288-0.442C36.95,20.777,33.976,20.139,30.903,20.139z
			 M44.481,43.495h-7.407c-0.204,0-0.392-0.093-0.528-0.262l-0.069-0.086l0.093-0.061c0.357-0.234,0.71-0.515,1.107-0.883
			l0.029-0.026l6.061,0.009l0.025-0.59c-0.832-0.746-1.901-1.157-3.016-1.157c-0.521,0-1.034,0.09-1.526,0.267l-0.405,0.146
			l0.299-0.309c0.36-0.372,0.702-0.823,1.073-1.418l0.029-0.047h0.056c0.068,0,0.141-0.003,0.216-0.005
			c0.084-0.003,0.173-0.006,0.262-0.006c1.583,0,3.069,0.616,4.186,1.736c0.13,0.127,0.202,0.3,0.202,0.484v1.523
			C45.167,43.188,44.859,43.495,44.481,43.495z M36.779,43.188c0.086,0.07,0.188,0.108,0.295,0.108h7.407
			c0.268,0,0.486-0.218,0.486-0.484v-1.523c0-0.131-0.052-0.252-0.144-0.343c-1.079-1.083-2.516-1.679-4.045-1.679
			c-0.087,0-0.173,0.003-0.255,0.006c-0.058,0.002-0.113,0.004-0.167,0.005c-0.281,0.447-0.547,0.813-0.817,1.128
			c0.403-0.11,0.817-0.165,1.236-0.165c1.18,0,2.311,0.44,3.185,1.239l0.034,0.032l-0.037,0.876l-0.096-0.001l-6.078-0.01
			C37.427,42.706,37.104,42.967,36.779,43.188z M30.895,42.331l-0.028-0.009c-4.778-1.389-8.116-5.805-8.116-10.739l0.018-8.795
			l0.061-0.026c5.333-2.283,10.895-2.272,16.167,0.028l0.06,0.026v8.766c0,5.094-3.193,9.31-8.134,10.739L30.895,42.331z
			 M22.969,22.92l-0.018,8.663c0,4.836,3.265,9.166,7.943,10.539c4.912-1.434,7.963-5.47,7.963-10.539v-8.635
			C33.671,20.703,28.213,20.694,22.969,22.92z M30.903,37.972c-1.582,0-3.069-0.616-4.188-1.735
			c-0.129-0.129-0.201-0.301-0.201-0.484v-1.523c0-0.378,0.308-0.687,0.687-0.687h7.404c0.379,0,0.687,0.308,0.687,0.687v1.523
			c0,0.184-0.072,0.355-0.202,0.485C33.974,37.355,32.486,37.972,30.903,37.972z M27.201,33.743c-0.269,0-0.487,0.218-0.487,0.486
			v1.523c0,0.13,0.05,0.252,0.142,0.343c1.081,1.082,2.518,1.678,4.047,1.678c1.53,0,2.967-0.596,4.046-1.677
			c0.092-0.092,0.143-0.214,0.143-0.344v-1.523c0-0.268-0.218-0.486-0.487-0.486H27.201z M30.903,36.799
			c-1.182,0-2.312-0.439-3.183-1.238l-0.033-0.03v-0.877l6.434,0.032l-0.012,0.868l-0.033,0.029
			C33.206,36.368,32.079,36.799,30.903,36.799z M27.888,35.443c0.829,0.747,1.898,1.157,3.015,1.157
			c1.111,0,2.177-0.403,3.007-1.135l0.008-0.579l-6.03-0.03V35.443z M44.305,35.449c-0.797,0-1.57-0.229-2.237-0.661l-0.062-0.04
			l0.02-0.071c0.104-0.371,0.191-0.817,0.259-1.328l0.028-0.212l0.145,0.157c0.492,0.535,1.166,0.842,1.848,0.842
			c0.7,0,1.396-0.31,1.959-0.874l0.072-0.072l0.971,1.021l-0.073,0.069c-0.775,0.729-1.776,1.141-2.829,1.166v0.001L44.305,35.449z
			 M42.238,34.659c0.592,0.368,1.268,0.571,1.967,0.588v-0.001h0.1c1.005,0,1.966-0.37,2.718-1.044l-0.691-0.727
			c-0.587,0.556-1.303,0.861-2.026,0.861c-0.673,0-1.336-0.275-1.85-0.76C42.396,33.982,42.322,34.346,42.238,34.659z M25.264,29.65
			l-1.009-1.062l0.131-0.043c0.8-0.744,1.833-1.153,2.911-1.153c1.105,0,2.146,0.432,2.931,1.217l0.072,0.073l-0.996,0.945
			l-0.069-0.068c-0.559-0.551-1.247-0.854-1.939-0.854c-0.7,0-1.395,0.31-1.958,0.873L25.264,29.65z M24.58,28.639l0.689,0.726
			c0.588-0.556,1.304-0.86,2.026-0.86c0.716,0,1.426,0.299,2.01,0.845l0.707-0.67c-0.737-0.702-1.698-1.086-2.716-1.086
			C26.294,27.592,25.333,27.963,24.58,28.639z M32.484,29.65l-0.969-1.021l0.073-0.069c0.801-0.753,1.841-1.168,2.928-1.168
			c1.106,0,2.147,0.432,2.93,1.217l0.073,0.073l-0.996,0.945l-0.069-0.068c-0.346-0.342-1.058-0.916-1.938-0.916
			c-0.888,0-1.609,0.585-1.96,0.935L32.484,29.65z M31.8,28.638l0.689,0.727c0.395-0.374,1.127-0.922,2.028-0.922
			c0.895,0,1.62,0.54,2.009,0.906l0.706-0.67c-0.736-0.702-1.697-1.086-2.715-1.086C33.514,27.592,32.553,27.963,31.8,28.638z"/>
	</g>
	<g>
		<path fill="#7C7D7E" d="M40.86,48.98c-0.054,0-0.105-0.009-0.155-0.022c-2.563-0.711-4.785-2.21-6.424-4.335
			c0.359-0.138,0.729-0.342,1.09-0.561c1.396,1.789,3.305,3.078,5.48,3.718c4.742-1.389,8.04-5.438,8.04-10.644l-0.001-8.703
			c-2.016-0.892-4.16-1.421-6.393-1.599l0.029-1.205c2.414,0.219,4.805,0.837,7.069,1.869c0.209,0.094,0.344,0.303,0.344,0.533
			l0.001,9.103c0,5.504-3.669,10.366-8.924,11.823c-0.05,0.014-0.103,0.021-0.155,0.021L40.86,48.98z M30.903,43.427
			c-0.053,0-0.104-0.009-0.154-0.021c-5.341-1.466-9.072-6.327-9.072-11.822v-9.104c0-0.229,0.136-0.44,0.347-0.534
			c2.804-1.264,5.792-1.906,8.879-1.906c3.087,0,6.075,0.642,8.88,1.906c0.211,0.094,0.347,0.304,0.347,0.534v9.104
			c0,5.495-3.729,10.356-9.07,11.822C31.008,43.418,30.957,43.427,30.903,43.427z M30.903,21.149c-2.69,0-5.393,0.574-8.034,1.705
			l-0.018,8.729c0,4.89,3.307,9.267,8.043,10.644c4.919-1.424,8.062-5.542,8.062-10.644v-8.701
			C36.297,21.722,33.595,21.149,30.903,21.149z M37.074,43.396c-0.174,0-0.333-0.079-0.45-0.225
			c0.413-0.271,0.781-0.579,1.121-0.894l6.117,0.01l0.031-0.733c-0.863-0.79-1.967-1.214-3.117-1.214
			c-0.53,0-1.055,0.091-1.561,0.272c0.422-0.436,0.774-0.936,1.086-1.435h0.001c0.143,0,0.308-0.011,0.477-0.011
			c1.555,0,3.017,0.605,4.114,1.707c0.113,0.11,0.174,0.258,0.174,0.414v1.523c0,0.323-0.266,0.584-0.586,0.584H37.074z
			 M30.903,37.872c-1.556,0-3.017-0.605-4.117-1.706c-0.111-0.11-0.172-0.257-0.172-0.414v-1.523c0-0.323,0.264-0.586,0.587-0.586
			h7.404c0.325,0,0.587,0.264,0.587,0.586v1.523c0,0.157-0.061,0.304-0.172,0.414C33.921,37.267,32.46,37.872,30.903,37.872z
			 M27.788,35.487c0.861,0.79,1.965,1.212,3.115,1.212c1.151,0,2.253-0.422,3.106-1.189l0.01-0.724l-6.232-0.031V35.487z
			 M44.305,35.349c-0.778,0-1.532-0.223-2.183-0.645c0.112-0.399,0.198-0.861,0.262-1.342c0.524,0.57,1.224,0.874,1.921,0.875
			c0.727,0,1.448-0.321,2.029-0.903l0.831,0.874c-0.766,0.72-1.781,1.14-2.86,1.14V35.349z M31.657,28.633
			c0.765-0.72,1.781-1.141,2.86-1.141c1.081,0,2.096,0.423,2.86,1.188l-0.852,0.808c-0.367-0.363-1.098-0.944-2.008-0.944
			c-0.927,0-1.669,0.604-2.031,0.964L31.657,28.633z M24.438,28.633c0.766-0.72,1.78-1.141,2.858-1.141
			c1.081,0,2.096,0.423,2.86,1.188l-0.852,0.808c-0.578-0.57-1.29-0.883-2.009-0.883c-0.727,0-1.447,0.321-2.029,0.902l-0.83-0.873
			L24.438,28.633z"/>
		<path fill="#7C7D7E" d="M40.86,49.08c-0.059,0-0.118-0.008-0.182-0.025c-2.585-0.717-4.825-2.229-6.477-4.37l-0.082-0.106
			l0.125-0.049c0.302-0.115,0.644-0.291,1.074-0.553l0.076-0.046l0.055,0.07c1.377,1.764,3.244,3.034,5.401,3.675
			c4.824-1.425,7.94-5.559,7.94-10.539l-0.001-8.638c-1.967-0.862-4.086-1.388-6.301-1.564l-0.095-0.007l0.034-1.407l0.106,0.01
			c2.47,0.224,4.859,0.855,7.102,1.878c0.244,0.109,0.402,0.354,0.402,0.624l0.001,9.103c0,5.549-3.699,10.451-8.997,11.92
			c-0.052,0.014-0.105,0.022-0.157,0.024L40.86,49.08z M34.442,44.666c1.617,2.053,3.79,3.502,6.29,4.195
			c0.038,0.011,0.073,0.017,0.106,0.019h0.024c0.042,0,0.086-0.007,0.129-0.019c5.211-1.444,8.851-6.267,8.851-11.727l-0.001-9.103
			c0-0.19-0.112-0.364-0.285-0.441c-2.19-0.999-4.521-1.621-6.931-1.851l-0.024,1.004c2.226,0.187,4.354,0.725,6.33,1.599
			l0.06,0.026l0.001,8.768c0,5.081-3.184,9.297-8.111,10.739l-0.028,0.009l-0.028-0.009c-2.182-0.642-4.073-1.914-5.476-3.683
			C34.998,44.402,34.705,44.556,34.442,44.666z M30.903,43.526c-0.056,0-0.113-0.008-0.179-0.024
			c-5.386-1.479-9.147-6.379-9.147-11.919v-9.104c0-0.27,0.159-0.515,0.406-0.625c2.818-1.271,5.819-1.915,8.92-1.915
			c3.101,0,6.103,0.645,8.921,1.915c0.246,0.109,0.405,0.355,0.405,0.625v9.104c0,5.54-3.76,10.441-9.144,11.919
			C31.016,43.519,30.959,43.526,30.903,43.526z M30.903,20.139c-3.072,0-6.046,0.638-8.838,1.897
			c-0.175,0.078-0.288,0.252-0.288,0.443v9.104c0,5.45,3.7,10.271,8.998,11.726c0.095,0.025,0.157,0.025,0.26,0
			c5.294-1.453,8.995-6.275,8.995-11.726v-9.104c0-0.191-0.113-0.365-0.288-0.442C36.95,20.777,33.976,20.139,30.903,20.139z
			 M44.481,43.495h-7.407c-0.204,0-0.392-0.093-0.528-0.262l-0.069-0.086l0.093-0.061c0.357-0.234,0.71-0.515,1.107-0.883
			l0.029-0.026l6.061,0.009l0.025-0.59c-0.832-0.746-1.901-1.157-3.016-1.157c-0.521,0-1.034,0.09-1.526,0.267l-0.405,0.146
			l0.299-0.309c0.36-0.372,0.702-0.823,1.073-1.418l0.029-0.047h0.056c0.068,0,0.141-0.003,0.216-0.005
			c0.084-0.003,0.173-0.006,0.262-0.006c1.583,0,3.069,0.616,4.186,1.736c0.13,0.127,0.202,0.3,0.202,0.484v1.523
			C45.167,43.188,44.859,43.495,44.481,43.495z M36.779,43.188c0.086,0.07,0.188,0.108,0.295,0.108h7.407
			c0.268,0,0.486-0.218,0.486-0.484v-1.523c0-0.131-0.052-0.252-0.144-0.343c-1.079-1.083-2.516-1.679-4.045-1.679
			c-0.087,0-0.173,0.003-0.255,0.006c-0.058,0.002-0.113,0.004-0.167,0.005c-0.281,0.447-0.547,0.813-0.817,1.128
			c0.403-0.11,0.817-0.165,1.236-0.165c1.18,0,2.311,0.44,3.185,1.239l0.034,0.032l-0.037,0.876l-0.096-0.001l-6.078-0.01
			C37.427,42.706,37.104,42.967,36.779,43.188z M30.895,42.331l-0.028-0.009c-4.778-1.389-8.116-5.805-8.116-10.739l0.018-8.795
			l0.061-0.026c5.333-2.282,10.891-2.273,16.167,0.028l0.06,0.026v8.766c0,5.094-3.193,9.31-8.134,10.739L30.895,42.331z
			 M22.969,22.92l-0.018,8.663c0,4.836,3.265,9.166,7.943,10.539c4.912-1.434,7.963-5.47,7.963-10.539v-8.635
			C33.669,20.703,28.213,20.695,22.969,22.92z M30.903,37.972c-1.582,0-3.069-0.616-4.188-1.735
			c-0.129-0.129-0.201-0.301-0.201-0.484v-1.523c0-0.378,0.308-0.687,0.687-0.687h7.404c0.379,0,0.687,0.308,0.687,0.687v1.523
			c0,0.184-0.072,0.355-0.202,0.485C33.974,37.355,32.486,37.972,30.903,37.972z M27.201,33.743c-0.269,0-0.487,0.218-0.487,0.486
			v1.523c0,0.13,0.05,0.252,0.142,0.343c1.081,1.082,2.518,1.678,4.047,1.678c1.53,0,2.967-0.596,4.046-1.677
			c0.092-0.092,0.143-0.214,0.143-0.344v-1.523c0-0.268-0.218-0.486-0.487-0.486H27.201z M30.903,36.799
			c-1.182,0-2.312-0.439-3.183-1.238l-0.033-0.03v-0.877l6.434,0.032l-0.012,0.868l-0.033,0.029
			C33.206,36.368,32.079,36.799,30.903,36.799z M27.888,35.443c0.829,0.747,1.898,1.157,3.015,1.157
			c1.111,0,2.177-0.403,3.007-1.135l0.008-0.579l-6.03-0.03V35.443z M44.305,35.449c-0.797,0-1.57-0.229-2.237-0.661l-0.062-0.04
			l0.02-0.071c0.104-0.371,0.191-0.817,0.259-1.328l0.028-0.212l0.145,0.157c0.492,0.535,1.166,0.842,1.848,0.842
			c0.7,0,1.396-0.31,1.959-0.874l0.072-0.072l0.971,1.021l-0.073,0.069c-0.775,0.729-1.776,1.141-2.829,1.166v0.001L44.305,35.449z
			 M42.238,34.659c0.592,0.368,1.268,0.571,1.967,0.588v-0.001h0.1c1.005,0,1.966-0.37,2.718-1.044l-0.691-0.727
			c-0.587,0.556-1.303,0.861-2.026,0.861c-0.673,0-1.336-0.275-1.85-0.76C42.396,33.982,42.322,34.346,42.238,34.659z M25.264,29.65
			l-1.009-1.062l0.131-0.043c0.8-0.744,1.833-1.153,2.911-1.153c1.105,0,2.146,0.432,2.931,1.217l0.072,0.073l-0.996,0.945
			l-0.069-0.068c-0.559-0.551-1.247-0.854-1.939-0.854c-0.7,0-1.395,0.31-1.958,0.873L25.264,29.65z M24.58,28.639l0.689,0.726
			c0.588-0.556,1.304-0.86,2.026-0.86c0.716,0,1.426,0.299,2.01,0.845l0.707-0.67c-0.737-0.702-1.698-1.086-2.716-1.086
			C26.294,27.592,25.333,27.963,24.58,28.639z M32.484,29.65l-0.969-1.021l0.073-0.069c0.801-0.753,1.841-1.168,2.928-1.168
			c1.106,0,2.147,0.432,2.93,1.217l0.073,0.073l-0.996,0.945l-0.069-0.068c-0.346-0.342-1.058-0.916-1.938-0.916
			c-0.888,0-1.609,0.585-1.96,0.935L32.484,29.65z M31.8,28.638l0.689,0.727c0.395-0.374,1.127-0.922,2.028-0.922
			c0.895,0,1.62,0.54,2.009,0.906l0.706-0.67c-0.736-0.702-1.697-1.086-2.715-1.086C33.514,27.592,32.553,27.963,31.8,28.638z"/>
	</g>
</g>
</svg>
