<?xml version="1.0" encoding="utf-8"?>
<!-- Generator: Adobe Illustrator 16.0.0, SVG Export Plug-In . SVG Version: 6.00 Build 0)  -->
<!DOCTYPE svg PUBLIC "-//W3C//DTD SVG 1.1//EN" "http://www.w3.org/Graphics/SVG/1.1/DTD/svg11.dtd">
<svg version="1.1" id="Слой_1" xmlns="http://www.w3.org/2000/svg" xmlns:xlink="http://www.w3.org/1999/xlink" x="0px" y="0px"
	 width="70px" height="70px" viewBox="0 0 70 70" enable-background="new 0 0 70 70" xml:space="preserve">
<path fill="#7C7D7E" d="M51.899,57.807H18.935c-3.87,0-7.018-3.148-7.018-7.018V17.825c0-3.87,3.147-7.018,7.018-7.018h32.965
	c3.869,0,7.018,3.148,7.018,7.018v32.964C58.917,54.658,55.769,57.807,51.899,57.807z M18.935,12.912
	c-2.709,0-4.913,2.204-4.913,4.914v32.964c0,2.709,2.204,4.913,4.913,4.913h32.965c2.708,0,4.912-2.204,4.912-4.913V17.825
	c0-2.71-2.204-4.914-4.912-4.914H18.935z"/>
<g>
	<path fill="#7C7D7E" d="M34.307,30.76l-3.052,3.06l3.052,3.06c0.651-0.86,1.04-1.907,1.04-3.06
		C35.346,32.668,34.958,31.62,34.307,30.76 M30.225,28.69c-1.153,0-2.209,0.397-3.062,1.039l3.166,3.166l3.069-3.069
		C32.522,29.128,31.426,28.69,30.225,28.69 M25.094,33.82c0,1.201,0.438,2.297,1.136,3.175l3.175-3.175l-3.175-3.175
		C25.532,31.522,25.094,32.618,25.094,33.82 M30.225,38.941c1.201,0,2.298-0.429,3.174-1.129l-3.069-3.067l-3.166,3.166
		C28.016,38.554,29.072,38.941,30.225,38.941 M30.225,40.257c-3.549,0-6.438-2.889-6.438-6.437c0-3.548,2.89-6.438,6.438-6.438
		c3.546,0,6.43,2.89,6.43,6.438C36.654,37.368,33.771,40.257,30.225,40.257 M39.048,30.062h1.502v1.501h-1.502V30.062z
		 M39.048,33.065h1.502v1.509h-1.502V33.065z M39.048,36.076h1.502v1.502h-1.502V36.076z M42.062,30.062h1.501v1.501h-1.501V30.062z
		 M42.062,33.065h1.501v1.509h-1.501V33.065z M42.062,36.076h1.501v1.502h-1.501V36.076z M45.062,30.062h1.512v1.501h-1.512V30.062z
		 M45.062,33.065h1.512v1.509h-1.512V33.065z M45.062,36.076h1.512v1.502h-1.512V36.076z M49.918,24.005
		c0-0.723-0.593-1.315-1.314-1.315H22.431c-0.723,0-1.315,0.592-1.315,1.315v19.622c0,0.729,0.593,1.314,1.315,1.314h26.173
		c0.722,0,1.314-0.585,1.314-1.314V24.005L49.918,24.005z M48.604,46.256H22.431c-1.446,0-2.623-1.177-2.623-2.629V24.005
		c0-1.446,1.176-2.622,2.623-2.622h26.173c1.446,0,2.621,1.176,2.621,2.622v19.622C51.225,45.08,50.05,46.256,48.604,46.256"/>
	<path fill="#7C7D7E" d="M48.604,46.436H22.431c-1.545,0-2.801-1.26-2.801-2.809V24.005c0-1.544,1.256-2.801,2.801-2.801h26.173
		c1.544,0,2.801,1.256,2.801,2.801v19.622c0,0.75-0.291,1.455-0.821,1.986C50.055,46.144,49.352,46.436,48.604,46.436z
		 M22.431,21.562c-1.347,0-2.443,1.096-2.443,2.443v19.622c0,1.352,1.096,2.451,2.443,2.451h26.173c0.652,0,1.265-0.256,1.726-0.717
		c0.463-0.465,0.718-1.08,0.718-1.734V24.005c0-1.347-1.097-2.443-2.443-2.443H22.431z M48.604,45.121H22.431
		c-0.825,0-1.495-0.672-1.495-1.494V24.005c0-0.824,0.67-1.494,1.495-1.494h26.173c0.824,0,1.494,0.669,1.494,1.494v19.622
		C50.098,44.449,49.428,45.121,48.604,45.121z M22.431,22.868c-0.627,0-1.137,0.51-1.137,1.137v19.622
		c0,0.626,0.51,1.136,1.137,1.136h26.173c0.627,0,1.137-0.51,1.137-1.136V24.005c0-0.302-0.119-0.586-0.336-0.802
		c-0.214-0.215-0.499-0.335-0.801-0.335H22.431z M30.225,40.437c-3.649,0-6.617-2.968-6.617-6.617c0-3.648,2.968-6.616,6.617-6.616
		c3.644,0,6.608,2.968,6.608,6.616c0,1.764-0.688,3.425-1.938,4.675C33.646,39.747,31.988,40.437,30.225,40.437z M30.225,27.561
		c-3.451,0-6.26,2.809-6.26,6.259c0,3.452,2.809,6.259,6.26,6.259c1.667,0,3.236-0.652,4.417-1.837
		c1.182-1.183,1.833-2.753,1.833-4.422C36.475,30.369,33.67,27.561,30.225,27.561z M30.225,39.121c-1.146,0-2.242-0.369-3.168-1.067
		l-0.165-0.124l3.438-3.437l3.338,3.336l-0.157,0.125C32.551,38.719,31.415,39.121,30.225,39.121z M27.438,37.89
		c0.828,0.573,1.786,0.874,2.786,0.874c1.043,0,2.043-0.334,2.903-0.967l-2.798-2.799L27.438,37.89z M46.753,37.758h-1.868v-1.859
		h1.868V37.758z M45.242,37.398h1.153v-1.144h-1.153V37.398z M43.74,37.758h-1.859v-1.859h1.859V37.758z M42.24,37.398h1.143v-1.144
		H42.24V37.398z M40.729,37.758h-1.86v-1.859h1.86V37.758z M39.227,37.398h1.145v-1.144h-1.145V37.398z M26.215,37.263l-0.125-0.156
		c-0.769-0.967-1.176-2.104-1.176-3.287c0-1.184,0.407-2.32,1.176-3.286l0.125-0.157l3.443,3.443L26.215,37.263z M26.248,30.917
		c-0.639,0.866-0.976,1.866-0.976,2.903c0,1.038,0.337,2.038,0.976,2.904l2.904-2.904L26.248,30.917z M34.326,37.152l-3.324-3.333
		l3.324-3.333l0.124,0.164c0.704,0.931,1.077,2.027,1.077,3.168c0,1.142-0.373,2.238-1.077,3.168L34.326,37.152z M31.508,33.82
		l2.778,2.786c0.578-0.831,0.882-1.791,0.882-2.786s-0.304-1.955-0.882-2.786L31.508,33.82z M46.753,34.754h-1.868v-1.868h1.868
		V34.754z M45.242,34.396h1.153v-1.152h-1.153V34.396z M43.74,34.754h-1.859v-1.868h1.859V34.754z M42.24,34.396h1.143v-1.152H42.24
		V34.396z M40.729,34.754h-1.86v-1.868h1.86V34.754z M39.227,34.396h1.145v-1.152h-1.145V34.396z M30.329,33.147l-3.438-3.438
		l0.165-0.123c0.934-0.704,2.029-1.075,3.168-1.075c1.184,0,2.32,0.406,3.285,1.175l0.157,0.125L30.329,33.147z M27.438,29.75
		l2.89,2.891l2.799-2.797c-0.866-0.639-1.865-0.975-2.903-0.975C29.231,28.869,28.271,29.173,27.438,29.75z M46.753,31.742h-1.868
		v-1.86h1.868V31.742z M45.242,31.384h1.153V30.24h-1.153V31.384z M43.74,31.742h-1.859v-1.86h1.859V31.742z M42.24,31.384h1.143
		V30.24H42.24V31.384z M40.729,31.742h-1.86v-1.86h1.86V31.742z M39.227,31.384h1.145V30.24h-1.145V31.384z"/>
</g>
</svg>
