<?xml version="1.0" encoding="utf-8"?>
<!-- Generator: Adobe Illustrator 16.0.0, SVG Export Plug-In . SVG Version: 6.00 Build 0)  -->
<!DOCTYPE svg PUBLIC "-//W3C//DTD SVG 1.1//EN" "http://www.w3.org/Graphics/SVG/1.1/DTD/svg11.dtd">
<svg version="1.1" id="Слой_1" xmlns="http://www.w3.org/2000/svg" xmlns:xlink="http://www.w3.org/1999/xlink" x="0px" y="0px"
	 width="70px" height="70px" viewBox="0 0 70 70" enable-background="new 0 0 70 70" xml:space="preserve">
<path fill="#7C7D7E" d="M51.899,57.807H18.935c-3.87,0-7.018-3.148-7.018-7.018V17.825c0-3.87,3.147-7.018,7.018-7.018h32.965
	c3.869,0,7.018,3.148,7.018,7.018v32.964C58.917,54.658,55.769,57.807,51.899,57.807z M18.935,12.912
	c-2.709,0-4.913,2.204-4.913,4.914v32.964c0,2.709,2.204,4.913,4.913,4.913h32.965c2.708,0,4.912-2.204,4.912-4.913V17.825
	c0-2.71-2.204-4.914-4.912-4.914H18.935z"/>
<g>
	<path fill="#7C7D7E" d="M23.154,23.732c-1.404,0-2.547,1.145-2.547,2.55v16.532c0,1.406,1.142,2.549,2.545,2.549h2.545v-1.272
		h-2.545c-0.701,0-1.272-0.573-1.272-1.276V26.282c0-0.704,0.572-1.277,1.274-1.277h25.444c0.702,0,1.274,0.573,1.274,1.277v16.532
		c0,0.703-0.571,1.276-1.272,1.276H37.785v1.272h10.815c1.403,0,2.545-1.144,2.545-2.549V26.282c0-1.405-1.144-2.55-2.547-2.55
		H23.154z"/>
	<g>
		<g>
			<path fill="#7C7D7E" d="M48.601,45.363H37.785v-1.272h10.815c0.701,0,1.272-0.573,1.272-1.276V26.282
				c0-0.704-0.571-1.277-1.274-1.277H23.154c-0.702,0-1.274,0.573-1.274,1.277v16.532c0,0.703,0.571,1.276,1.272,1.276h2.545v1.272
				h-2.545c-1.403,0-2.545-1.143-2.545-2.549V26.282c0-1.405,1.143-2.55,2.547-2.55h25.444c1.403,0,2.547,1.145,2.547,2.55v16.532
				C51.146,44.22,50.004,45.363,48.601,45.363z"/>
			<path fill="#7C7D7E" d="M48.601,45.596H37.553v-1.737h11.048c0.573,0,1.04-0.469,1.04-1.044V26.282
				c0-0.576-0.468-1.045-1.042-1.045H23.154c-0.574,0-1.042,0.469-1.042,1.045v16.532c0,0.575,0.467,1.044,1.04,1.044h2.777v1.737
				h-2.777c-1.531,0-2.777-1.247-2.777-2.781V26.282c0-1.534,1.247-2.782,2.779-2.782h25.444c1.532,0,2.779,1.248,2.779,2.782
				v16.532C51.378,44.349,50.132,45.596,48.601,45.596z M38.018,45.131h10.583c1.274,0,2.312-1.039,2.312-2.316V26.282
				c0-1.277-1.039-2.317-2.314-2.317H23.154c-1.276,0-2.314,1.04-2.314,2.317v16.532c0,1.277,1.038,2.316,2.312,2.316h2.312v-0.808
				h-2.312c-0.83,0-1.505-0.677-1.505-1.509V26.282c0-0.832,0.676-1.51,1.507-1.51h25.444c0.831,0,1.507,0.678,1.507,1.51v16.532
				c0,0.832-0.675,1.509-1.505,1.509H38.018V45.131z"/>
		</g>
	</g>
	<polygon fill="#7C7D7E" points="20.607,28.186 20.607,30.73 51.146,30.73 51.146,30.73 51.146,28.186 	"/>
	<g>
		<g>
			<polygon fill="#7C7D7E" points="51.146,30.73 20.607,30.73 20.607,28.186 51.146,28.186 51.146,30.73 			"/>
			<path fill="#7C7D7E" d="M51.378,30.964H20.375v-3.011h31.003V30.964z M20.84,30.498h30.073v-2.079H20.84V30.498z"/>
		</g>
	</g>
	<rect x="26.468" y="47.517" fill="#7C7D7E" width="7.156" height="1.272"/>
	<g>
		<g>
			<rect x="26.468" y="47.517" fill="#7C7D7E" width="7.156" height="1.272"/>
			<path fill="#7C7D7E" d="M33.857,49.021h-7.622v-1.738h7.622V49.021z M26.701,48.557h6.69v-0.808h-6.69V48.557z"/>
		</g>
	</g>
	<rect x="26.468" y="45.039" fill="#7C7D7E" width="7.156" height="1.272"/>
	<g>
		<g>
			<rect x="26.468" y="45.039" fill="#7C7D7E" width="7.156" height="1.272"/>
			<path fill="#7C7D7E" d="M33.857,46.544h-7.622v-1.737h7.622V46.544z M26.701,46.079h6.69v-0.808h-6.69V46.079z"/>
		</g>
	</g>
	<rect x="26.468" y="42.561" fill="#7C7D7E" width="7.156" height="1.272"/>
	<g>
		<g>
			<rect x="26.468" y="42.561" fill="#7C7D7E" width="7.156" height="1.272"/>
			<path fill="#7C7D7E" d="M33.857,44.066h-7.622v-1.738h7.622V44.066z M26.701,43.601h6.69v-0.807h-6.69V43.601z"/>
		</g>
	</g>
	<rect x="26.468" y="40.084" fill="#7C7D7E" width="7.156" height="1.273"/>
	<g>
		<g>
			<rect x="26.468" y="40.085" fill="#7C7D7E" width="7.156" height="1.272"/>
			<path fill="#7C7D7E" d="M33.857,41.59h-7.622v-1.738h7.622V41.59z M26.701,41.125h6.69v-0.808h-6.69V41.125z"/>
		</g>
	</g>
	<rect x="26.468" y="37.607" fill="#7C7D7E" width="7.156" height="1.272"/>
	<g>
		<g>
			<rect x="26.468" y="37.607" fill="#7C7D7E" width="7.156" height="1.272"/>
			<path fill="#7C7D7E" d="M33.857,39.112h-7.622v-1.738h7.622V39.112z M26.701,38.646h6.69V37.84h-6.69V38.646z"/>
		</g>
	</g>
	<rect x="34.395" y="45.555" fill="#7C7D7E" width="2.808" height="1.272"/>
	<g>
		<g>
			<rect x="34.395" y="45.555" fill="#7C7D7E" width="2.808" height="1.272"/>
			<path fill="#7C7D7E" d="M37.435,47.06h-3.273v-1.737h3.273V47.06z M34.627,46.594h2.343v-0.807h-2.343V46.594z"/>
		</g>
	</g>
	<rect x="34.395" y="43.078" fill="#7C7D7E" width="2.808" height="1.272"/>
	<g>
		<g>
			<rect x="34.395" y="43.078" fill="#7C7D7E" width="2.808" height="1.272"/>
			<path fill="#7C7D7E" d="M37.435,44.584h-3.273v-1.738h3.273V44.584z M34.627,44.118h2.343v-0.808h-2.343V44.118z"/>
		</g>
	</g>
	<rect x="34.395" y="40.601" fill="#7C7D7E" width="2.808" height="1.272"/>
	<g>
		<g>
			<rect x="34.395" y="40.601" fill="#7C7D7E" width="2.808" height="1.272"/>
			<path fill="#7C7D7E" d="M37.435,42.105h-3.273v-1.738h3.273V42.105z M34.627,41.64h2.343v-0.807h-2.343V41.64z"/>
		</g>
	</g>
	<rect x="34.395" y="38.123" fill="#7C7D7E" width="2.808" height="1.272"/>
	<g>
		<g>
			<rect x="34.395" y="38.123" fill="#7C7D7E" width="2.808" height="1.272"/>
			<path fill="#7C7D7E" d="M37.435,39.628h-3.273v-1.737h3.273V39.628z M34.627,39.162h2.343v-0.807h-2.343V39.162z"/>
		</g>
	</g>
	<polygon fill="#7C7D7E" points="30.046,35.646 30.046,36.919 37.202,36.919 37.202,36.919 37.202,35.646 	"/>
	<g>
		<g>
			<polygon fill="#7C7D7E" points="37.202,36.919 30.046,36.919 30.046,35.646 37.202,35.646 37.202,36.919 			"/>
			<path fill="#7C7D7E" d="M37.436,37.151h-7.622v-1.738h7.622V37.151z M30.279,36.687h6.69v-0.808h-6.69V36.687z"/>
		</g>
	</g>
</g>
</svg>
