<?xml version="1.0" encoding="utf-8"?>
<!-- Generator: Adobe Illustrator 16.0.0, SVG Export Plug-In . SVG Version: 6.00 Build 0)  -->
<!DOCTYPE svg PUBLIC "-//W3C//DTD SVG 1.1//EN" "http://www.w3.org/Graphics/SVG/1.1/DTD/svg11.dtd">
<svg version="1.1" id="Слой_1" xmlns="http://www.w3.org/2000/svg" xmlns:xlink="http://www.w3.org/1999/xlink" x="0px" y="0px"
	 width="70px" height="70px" viewBox="0 0 70 70" enable-background="new 0 0 70 70" xml:space="preserve">
<path fill="#7C7D7E" d="M51.899,57.807H18.935c-3.87,0-7.018-3.148-7.018-7.018V17.825c0-3.87,3.147-7.018,7.018-7.018h32.965
	c3.869,0,7.018,3.148,7.018,7.018v32.964C58.917,54.658,55.769,57.807,51.899,57.807z M18.935,12.912
	c-2.709,0-4.913,2.204-4.913,4.914v32.964c0,2.709,2.204,4.913,4.913,4.913h32.965c2.708,0,4.912-2.204,4.912-4.913V17.825
	c0-2.71-2.204-4.914-4.912-4.914H18.935z"/>
<g>
	<path fill="#7C7D7E" d="M31.019,33.394c0-2.336,1.9-4.236,4.235-4.236c2.336,0,4.226,1.9,4.224,4.236
		c0,2.336-1.888,4.235-4.224,4.235C32.918,37.629,31.019,35.73,31.019,33.394 M29.809,33.394c0,3.004,2.44,5.446,5.445,5.446
		c3.006,0,5.434-2.441,5.434-5.446c0-3.006-2.428-5.446-5.434-5.446C32.249,27.948,29.809,30.389,29.809,33.394 M32.931,21.612
		l0.329-1.373c1.314-0.188,2.675-0.188,3.991,0.011l0.328,1.362c0.339,1.408,1.384,2.323,2.651,2.323
		c0.565,0,1.163-0.175,1.714-0.516l1.198-0.728c1.078,0.786,2.017,1.736,2.815,2.816l-0.728,1.187
		c-0.564,0.916-0.67,1.878-0.328,2.698c0.339,0.834,1.103,1.433,2.135,1.678l1.361,0.329c0.105,0.669,0.152,1.337,0.152,1.995
		c0,0.657-0.047,1.326-0.152,1.995l-1.361,0.328c-1.032,0.246-1.796,0.845-2.135,1.667c-0.342,0.832-0.236,1.795,0.328,2.699
		l0.728,1.197c-0.786,1.078-1.737,2.016-2.815,2.814l-1.198-0.727c-0.551-0.34-1.148-0.529-1.714-0.529
		c-1.267,0-2.312,0.928-2.651,2.336l-0.328,1.373c-1.338,0.188-2.676,0.188-3.991,0l-0.329-1.373
		c-0.339-1.408-1.385-2.336-2.652-2.336c-0.563,0-1.162,0.189-1.713,0.529l-1.197,0.727c-1.08-0.785-2.017-1.736-2.816-2.814
		l0.728-1.188c0.553-0.914,0.669-1.865,0.328-2.699c-0.339-0.832-1.102-1.432-2.134-1.677l-1.362-0.328
		c-0.105-0.669-0.152-1.338-0.152-1.995c0-0.658,0.047-1.326,0.152-1.995l1.362-0.329c1.033-0.246,1.795-0.845,2.134-1.678
		c0.342-0.833,0.225-1.783-0.328-2.687l-0.728-1.198c0.786-1.08,1.736-2.03,2.816-2.816l1.197,0.728
		c0.552,0.341,1.15,0.516,1.713,0.516C31.546,23.935,32.591,23.02,32.931,21.612 M32.99,19.065c-0.435,0.059-0.775,0.388-0.88,0.811
		l-0.354,1.443c-0.211,0.88-0.762,1.408-1.478,1.408c-0.352,0-0.727-0.117-1.092-0.34l-1.267-0.774
		c-0.364-0.223-0.857-0.2-1.196,0.047c-1.233,0.892-2.312,1.972-3.204,3.205c-0.259,0.35-0.282,0.82-0.047,1.195l0.775,1.268
		c0.352,0.576,0.435,1.138,0.247,1.608c-0.2,0.469-0.658,0.811-1.302,0.962l-1.456,0.353c-0.423,0.105-0.74,0.446-0.81,0.88
		c-0.118,0.763-0.175,1.525-0.175,2.265c0,0.739,0.057,1.501,0.175,2.265c0.07,0.435,0.387,0.775,0.81,0.88l1.456,0.354
		c0.644,0.15,1.102,0.492,1.302,0.961c0.188,0.469,0.105,1.033-0.247,1.607l-0.775,1.268c-0.235,0.377-0.212,0.846,0.047,1.197
		c0.903,1.232,1.971,2.312,3.204,3.191c0.339,0.258,0.844,0.283,1.196,0.059l1.267-0.775c0.376-0.223,0.752-0.34,1.092-0.34
		c0.716,0,1.267,0.518,1.478,1.396L32.11,46.9c0.093,0.424,0.445,0.752,0.88,0.822c0.75,0.119,1.512,0.176,2.265,0.176
		c0.751,0,1.513-0.057,2.276-0.176c0.423-0.07,0.764-0.387,0.868-0.811l0.354-1.455c0.209-0.879,0.762-1.396,1.477-1.396
		c0.34,0,0.716,0.117,1.092,0.34l1.257,0.775c0.176,0.105,0.375,0.152,0.574,0.152c0.234,0,0.445-0.07,0.633-0.199
		c1.222-0.891,2.301-1.971,3.204-3.203c0.26-0.352,0.271-0.822,0.047-1.197l-0.774-1.268c-0.351-0.576-0.435-1.139-0.246-1.607
		c0.198-0.469,0.657-0.811,1.302-0.961l1.444-0.355c0.434-0.104,0.751-0.445,0.821-0.878c0.118-0.751,0.175-1.513,0.175-2.265
		s-0.057-1.513-0.175-2.265c-0.059-0.434-0.388-0.774-0.811-0.88l-1.455-0.353c-0.645-0.151-1.104-0.493-1.302-0.962
		c-0.188-0.47-0.104-1.032,0.246-1.608l0.774-1.268c0.235-0.375,0.213-0.846-0.047-1.195c-0.891-1.233-1.971-2.313-3.204-3.205
		c-0.339-0.247-0.832-0.27-1.196-0.047l-1.268,0.774c-0.365,0.224-0.752,0.34-1.092,0.34c-0.717,0-1.268-0.528-1.478-1.396
		l-0.354-1.456c-0.104-0.436-0.457-0.752-0.88-0.811c-0.745-0.117-1.508-0.176-2.269-0.176
		C34.489,18.889,33.729,18.948,32.99,19.065"/>
	<path fill="#7C7D7E" d="M35.254,48.248c-0.786,0-1.567-0.061-2.319-0.18c-0.575-0.093-1.043-0.532-1.167-1.093l-0.352-1.436
		c-0.259-1.079-1.089-1.409-2.052-0.839l-1.263,0.773c-0.451,0.287-1.146,0.26-1.591-0.079c-1.225-0.873-2.329-1.973-3.274-3.263
		c-0.346-0.47-0.371-1.094-0.062-1.59l0.773-1.265c0.289-0.471,0.367-0.931,0.221-1.295c-0.153-0.357-0.529-0.627-1.057-0.75
		l-1.459-0.354c-0.562-0.14-0.982-0.597-1.073-1.165c-0.119-0.771-0.18-1.551-0.18-2.32c0-0.766,0.061-1.546,0.18-2.318
		c0.091-0.57,0.512-1.027,1.071-1.166l1.458-0.354c0.531-0.125,0.907-0.394,1.062-0.759c0.145-0.362,0.069-0.81-0.223-1.289
		l-0.775-1.267c-0.308-0.493-0.283-1.117,0.065-1.586c0.912-1.261,2.017-2.366,3.28-3.28c0.444-0.322,1.115-0.349,1.584-0.062
		l1.267,0.774c0.309,0.189,0.623,0.289,0.909,0.289c0.549,0,0.964-0.416,1.138-1.14l0.354-1.445
		c0.143-0.576,0.604-0.997,1.173-1.074c1.492-0.237,3.111-0.238,4.63,0.001c0.567,0.079,1.028,0.501,1.166,1.075l0.353,1.455
		c0.174,0.717,0.588,1.128,1.138,1.128c0.282,0,0.604-0.103,0.909-0.289l1.268-0.775c0.469-0.286,1.141-0.26,1.585,0.062
		c1.265,0.914,2.369,2.019,3.282,3.283c0.346,0.466,0.37,1.09,0.06,1.586l-0.772,1.264c-0.292,0.479-0.368,0.927-0.22,1.295
		c0.151,0.358,0.527,0.627,1.057,0.751l1.457,0.354c0.577,0.144,0.998,0.604,1.075,1.173c0.118,0.748,0.178,1.528,0.178,2.312
		c0,0.784-0.06,1.564-0.179,2.319c-0.093,0.573-0.519,1.029-1.086,1.165l-1.441,0.354c-0.533,0.124-0.909,0.393-1.063,0.758
		c-0.146,0.361-0.069,0.809,0.223,1.289l0.774,1.267c0.302,0.506,0.275,1.128-0.064,1.588c-0.926,1.264-2.029,2.367-3.279,3.278
		c-0.497,0.342-1.132,0.342-1.593,0.063l-1.261-0.777c-0.949-0.562-1.788-0.236-2.044,0.84l-0.355,1.457
		c-0.138,0.559-0.589,0.979-1.15,1.073C36.819,48.188,36.036,48.248,35.254,48.248z M30.278,43.711c0.888,0,1.568,0.622,1.818,1.664
		l0.353,1.442c0.064,0.291,0.303,0.513,0.596,0.56c1.428,0.229,2.968,0.228,4.431,0c0.281-0.047,0.512-0.263,0.582-0.549
		l0.354-1.454c0.243-1.025,0.939-1.663,1.816-1.663c0.401,0,0.841,0.134,1.271,0.389l1.262,0.778
		c0.225,0.133,0.565,0.14,0.825-0.037c1.184-0.863,2.235-1.915,3.12-3.122c0.173-0.233,0.184-0.552,0.028-0.811l-0.772-1.265
		c-0.405-0.667-0.502-1.349-0.272-1.921c0.246-0.581,0.795-0.995,1.548-1.171l1.439-0.354c0.298-0.071,0.512-0.299,0.56-0.595
		c0.113-0.717,0.171-1.461,0.171-2.208c0-0.747-0.058-1.491-0.171-2.21c-0.039-0.291-0.255-0.521-0.55-0.594l-1.452-0.353
		c-0.751-0.176-1.299-0.591-1.542-1.166c-0.232-0.579-0.136-1.26,0.27-1.926l0.774-1.268c0.159-0.253,0.146-0.567-0.029-0.804
		c-0.872-1.207-1.923-2.259-3.128-3.13c-0.222-0.162-0.573-0.177-0.809-0.032l-1.268,0.775c-0.412,0.252-0.865,0.392-1.274,0.392
		c-0.873,0-1.569-0.637-1.817-1.663l-0.354-1.456c-0.07-0.292-0.301-0.507-0.588-0.546c-1.461-0.229-2.99-0.229-4.426-0.001
		c-0.292,0.04-0.521,0.254-0.595,0.549l-0.354,1.442c-0.247,1.032-0.944,1.675-1.818,1.675c-0.416,0-0.856-0.136-1.275-0.392
		l-1.267-0.774c-0.235-0.145-0.586-0.13-0.808,0.031c-1.204,0.871-2.255,1.922-3.126,3.127c-0.178,0.24-0.19,0.555-0.034,0.805
		l0.777,1.271c0.405,0.665,0.502,1.347,0.272,1.92c-0.248,0.583-0.796,0.996-1.546,1.173l-1.454,0.353
		c-0.289,0.072-0.5,0.3-0.547,0.595c-0.113,0.734-0.171,1.479-0.171,2.209c0,0.733,0.058,1.477,0.171,2.211
		c0.047,0.293,0.258,0.522,0.549,0.594l1.454,0.354c0.748,0.174,1.296,0.588,1.541,1.164c0.233,0.581,0.137,1.263-0.27,1.927
		l-0.774,1.268c-0.158,0.253-0.146,0.568,0.03,0.807c0.902,1.231,1.953,2.278,3.125,3.114c0.23,0.175,0.587,0.188,0.805,0.049
		l1.273-0.779C29.438,43.845,29.877,43.711,30.278,43.711z M35.246,47.039c-0.68,0-1.365-0.048-2.036-0.144l-0.236-0.034
		l-0.384-1.604c-0.303-1.255-1.21-2.067-2.312-2.067c-0.494,0-1.023,0.165-1.53,0.478l-1.398,0.849l-0.188-0.137
		c-1.08-0.786-2.053-1.758-2.891-2.89L24.13,41.3l0.851-1.389c0.491-0.812,0.599-1.66,0.302-2.384
		c-0.297-0.729-0.968-1.25-1.892-1.47l-1.59-0.383l-0.036-0.231c-0.104-0.66-0.157-1.349-0.157-2.05s0.053-1.391,0.157-2.05
		l0.036-0.23l1.589-0.384c0.924-0.22,1.596-0.742,1.892-1.47c0.298-0.725,0.19-1.567-0.302-2.373l-0.849-1.398l0.138-0.188
		c0.809-1.111,1.782-2.084,2.893-2.893l0.188-0.138l1.396,0.849c0.494,0.305,1.022,0.465,1.532,0.465
		c1.103,0,2.011-0.807,2.312-2.055l0.384-1.604l0.236-0.034c1.354-0.194,2.76-0.189,4.093,0.012l0.232,0.035l0.383,1.591
		c0.301,1.248,1.208,2.055,2.312,2.055c0.511,0,1.039-0.16,1.529-0.464l1.4-0.85l0.188,0.138c1.084,0.79,2.056,1.762,2.891,2.891
		l0.141,0.189l-0.851,1.388c-0.499,0.809-0.606,1.654-0.304,2.38c0.297,0.731,0.969,1.253,1.893,1.473l1.59,0.384l0.036,0.23
		c0.104,0.659,0.156,1.349,0.156,2.05c0,0.7-0.053,1.39-0.156,2.05l-0.036,0.231l-1.589,0.383c-0.924,0.22-1.596,0.739-1.894,1.461
		c-0.303,0.737-0.195,1.583,0.302,2.38l0.851,1.4l-0.137,0.188c-0.788,1.08-1.76,2.053-2.891,2.89l-0.188,0.14l-1.399-0.849
		c-0.508-0.313-1.037-0.479-1.532-0.479c-1.102,0-2.009,0.812-2.312,2.068l-0.383,1.604l-0.236,0.033
		C36.617,46.991,35.926,47.039,35.246,47.039z M33.544,46.233c1.126,0.141,2.278,0.141,3.422,0l0.271-1.139
		c0.381-1.583,1.556-2.604,2.992-2.604c0.625,0,1.281,0.2,1.897,0.581l0.993,0.603c0.929-0.713,1.74-1.523,2.415-2.412l-0.604-0.996
		c-0.618-0.99-0.744-2.062-0.354-3.014c0.386-0.936,1.23-1.602,2.378-1.875l1.131-0.272c0.075-0.554,0.114-1.128,0.114-1.71
		c0-0.583-0.039-1.157-0.114-1.71l-1.132-0.273c-1.149-0.273-1.993-0.943-2.377-1.887c-0.391-0.937-0.266-2.009,0.354-3.014
		l0.603-0.983c-0.711-0.927-1.521-1.737-2.412-2.415l-0.997,0.605c-0.599,0.37-1.255,0.567-1.896,0.567
		c-1.438,0-2.612-1.017-2.991-2.591l-0.272-1.131c-1.119-0.148-2.286-0.151-3.422-0.009l-0.273,1.14
		c-0.38,1.574-1.555,2.591-2.993,2.591c-0.639,0-1.295-0.197-1.897-0.568l-0.994-0.604c-0.913,0.691-1.723,1.501-2.414,2.414
		l0.605,0.997c0.611,1,0.736,2.066,0.352,3.001c-0.383,0.942-1.228,1.612-2.377,1.886l-1.131,0.273
		c-0.076,0.553-0.114,1.127-0.114,1.71s0.038,1.157,0.114,1.71l1.132,0.272c1.148,0.272,1.992,0.942,2.376,1.886
		c0.383,0.934,0.257,2.004-0.353,3.012l-0.604,0.986c0.714,0.93,1.524,1.74,2.413,2.414l0.996-0.604
		c0.616-0.38,1.271-0.58,1.895-0.58c1.437,0,2.611,1.021,2.993,2.604L33.544,46.233z M35.254,39.189c-3.195,0-5.795-2.6-5.795-5.795
		s2.6-5.796,5.795-5.796c3.189,0,5.783,2.6,5.783,5.796S38.443,39.189,35.254,39.189z M35.254,28.298
		c-2.81,0-5.095,2.286-5.095,5.096s2.286,5.096,5.095,5.096c2.803,0,5.084-2.286,5.084-5.096S38.057,28.298,35.254,28.298z
		 M35.254,37.979c-2.528,0-4.585-2.056-4.585-4.584c0-2.529,2.057-4.586,4.585-4.586c1.223,0,2.372,0.478,3.236,1.345
		c0.863,0.866,1.338,2.018,1.337,3.241C39.827,35.922,37.775,37.979,35.254,37.979z M35.254,29.508
		c-2.143,0-3.885,1.743-3.885,3.886c0,2.142,1.743,3.885,3.885,3.885c2.136,0,3.874-1.743,3.874-3.885
		c0-1.037-0.402-2.013-1.134-2.747S36.289,29.508,35.254,29.508z"/>
</g>
</svg>
