<?xml version="1.0" encoding="utf-8"?>
<!-- Generator: Adobe Illustrator 16.0.0, SVG Export Plug-In . SVG Version: 6.00 Build 0)  -->
<!DOCTYPE svg PUBLIC "-//W3C//DTD SVG 1.1//EN" "http://www.w3.org/Graphics/SVG/1.1/DTD/svg11.dtd">
<svg version="1.1" id="Слой_1" xmlns="http://www.w3.org/2000/svg" xmlns:xlink="http://www.w3.org/1999/xlink" x="0px" y="0px"
	 width="70px" height="70px" viewBox="0 0 70 70" enable-background="new 0 0 70 70" xml:space="preserve">
<path fill="#7C7D7E" d="M51.899,57.807H18.935c-3.87,0-7.018-3.148-7.018-7.018V17.825c0-3.87,3.147-7.018,7.018-7.018h32.965
	c3.869,0,7.018,3.148,7.018,7.018v32.964C58.917,54.658,55.769,57.807,51.899,57.807z M18.935,12.912
	c-2.709,0-4.913,2.204-4.913,4.914v32.964c0,2.709,2.204,4.913,4.913,4.913h32.965c2.708,0,4.912-2.204,4.912-4.913V17.825
	c0-2.71-2.204-4.914-4.912-4.914H18.935z"/>
<g>
	<path fill-rule="evenodd" clip-rule="evenodd" fill="#7C7D7E" d="M23.102,47.63c-1.049,0-2.106,0-3.189,0c0-1.767,0-3.503,0-5.298
		c0.422,0,0.852,0,1.249,0c0.871-7.6,5.001-12.183,12.427-13.877c-0.525-0.678-0.771-1.477-0.524-2.369
		c0.171-0.617,0.512-1.135,1.027-1.515c1.036-0.764,2.523-0.687,3.438,0.156c1.097,1.01,1.194,2.208,0.312,3.73
		c7.4,1.666,11.537,6.256,12.419,13.851c0.42,0,0.884,0,1.38,0c0,1.795,0,3.543,0,5.326c-0.199,0-0.378,0-0.558,0
		c-6.579,0-13.156-0.007-19.734,0.01c-0.536,0-1.084,0.085-1.604,0.221c-1.405,0.365-2.798,0.779-4.196,1.173
		C24.307,49.386,23.426,48.887,23.102,47.63z M48.967,42.153c-0.43-4.441-2.325-8.024-6.104-10.384
		c-4.828-3.015-9.779-2.951-14.537,0.152c-3.632,2.369-5.467,5.896-5.864,10.232C31.324,42.153,40.106,42.153,48.967,42.153z
		 M39.37,43.795c-0.009-0.024-0.019-0.049-0.027-0.074c-4.976,0-9.951,0-14.955,0c0,1.182-0.001,2.317,0,3.453
		c0,0.769,0.078,0.831,0.808,0.625c3.67-1.035,7.34-2.07,11.01-3.104C37.262,44.396,38.316,44.094,39.37,43.795z M50.158,43.707
		c-0.128-0.013-0.217-0.029-0.305-0.029c-1.545,0-3.09-0.004-4.635,0.004c-0.193,0-0.391,0.044-0.578,0.095
		c-2.408,0.653-4.814,1.312-7.22,1.969c-0.66,0.182-1.318,0.371-1.977,0.555c0.006,0.022,0.011,0.045,0.017,0.068
		c4.894,0,9.787,0,14.697,0C50.158,45.471,50.158,44.611,50.158,43.707z M35.724,28.11c0.842,0.001,1.481-0.568,1.489-1.328
		c0.011-0.817-0.667-1.505-1.49-1.517c-0.846-0.012-1.517,0.589-1.512,1.358C34.216,27.453,34.884,28.11,35.724,28.11z
		 M21.276,43.562c0,0.902,0,1.787,0,2.678c0.635,0,1.245,0,1.852,0c0-0.913,0-1.796,0-2.678
		C22.495,43.562,21.895,43.562,21.276,43.562z"/>
	<path fill="#7C7D7E" d="M24.823,49.396c-0.925,0-1.597-0.536-1.909-1.516h-3.251v-5.798h1.276
		c0.917-7.388,5.031-12.024,12.234-13.786c-0.444-0.716-0.565-1.496-0.351-2.276c0.19-0.687,0.567-1.241,1.12-1.65
		c0.504-0.372,1.136-0.577,1.779-0.577c0.75,0,1.452,0.266,1.976,0.75c1.113,1.024,1.284,2.252,0.521,3.745
		c7.209,1.729,11.334,6.359,12.264,13.77h1.408v5.826l-9.721-0.001c-3.607,0-7.213,0.002-10.821,0.011
		c-0.483,0-1.001,0.071-1.542,0.213c-0.989,0.257-1.971,0.538-2.954,0.819l-1.238,0.352C25.338,49.355,25.071,49.396,24.823,49.396z
		 M20.163,47.38h3.133l0.048,0.188c0.288,1.118,1.03,1.538,2.137,1.229l1.236-0.353c0.986-0.282,1.973-0.564,2.965-0.822
		c0.581-0.151,1.142-0.229,1.667-0.229c3.607-0.009,7.214-0.011,10.821-0.011l9.221,0.001v-4.826h-1.353l-0.025-0.221
		c-0.873-7.521-4.872-11.981-12.226-13.636l-0.332-0.075l0.17-0.294c0.83-1.432,0.749-2.487-0.265-3.42
		c-0.806-0.742-2.215-0.805-3.121-0.139c-0.46,0.34-0.775,0.805-0.935,1.381c-0.206,0.747-0.044,1.47,0.481,2.148l0.24,0.31
		l-0.382,0.087C26.273,30.381,22.271,34.85,21.41,42.36l-0.025,0.222h-1.222V47.38z M24.691,48.15L24.691,48.15
		c-0.553,0-0.553-0.542-0.553-0.977v-3.703h15.382l0.146,0.418l-0.228,0.146l-14.174,4.004C25.022,48.107,24.842,48.15,24.691,48.15
		z M24.638,43.971v3.203c0,0.281,0.014,0.446,0.042,0.489c0.109-0.013,0.287-0.06,0.448-0.104l12.709-3.588H24.638z M50.408,46.618
		H35.27l-0.115-0.424l0.222-0.136l0.823-0.231c0.385-0.108,0.77-0.217,1.154-0.323l0.832-0.228c2.129-0.581,4.258-1.163,6.389-1.741
		c0.188-0.051,0.413-0.104,0.644-0.104c0.772-0.004,1.546-0.005,2.319-0.005l2.315,0.001c0.067,0,0.135,0.008,0.215,0.018
		l0.34,0.035V46.618z M37.012,46.118h12.896v-2.188c-0.019-0.002-0.037-0.003-0.055-0.003l-2.315-0.001
		c-0.773,0-1.546,0.001-2.318,0.005c-0.173,0-0.356,0.044-0.514,0.086c-2.131,0.578-4.26,1.16-6.388,1.741l-0.832,0.228
		C37.328,46.03,37.17,46.074,37.012,46.118z M23.377,46.49h-2.352v-3.178h2.352V46.49z M21.526,45.99h1.352v-2.178h-1.352V45.99z
		 M49.242,42.403H22.188l0.025-0.272c0.422-4.603,2.433-8.108,5.977-10.419c4.826-3.147,9.928-3.201,14.807-0.154
		c3.67,2.292,5.763,5.849,6.22,10.572L49.242,42.403z M22.738,41.903h25.952c-0.494-4.424-2.498-7.761-5.959-9.922
		c-4.713-2.944-9.605-2.893-14.268,0.149C25.124,34.308,23.198,37.595,22.738,41.903z M35.726,28.36
		C35.726,28.36,35.727,28.36,35.726,28.36c-0.985,0-1.759-0.762-1.766-1.736c-0.002-0.41,0.158-0.799,0.452-1.095
		c0.33-0.332,0.786-0.515,1.285-0.515h0.029c0.97,0.014,1.75,0.808,1.737,1.771C37.454,27.683,36.707,28.36,35.726,28.36z
		 M35.697,25.265v0.25c-0.359,0-0.698,0.134-0.93,0.367c-0.2,0.201-0.309,0.463-0.307,0.739c0.004,0.694,0.56,1.239,1.264,1.239
		c0.701,0,1.233-0.464,1.239-1.081c0.009-0.676-0.561-1.255-1.244-1.265L35.697,25.265z"/>
</g>
<path fill-rule="evenodd" clip-rule="evenodd" fill="#7C7D7E" d="M24.485,23.925c-0.104,0.394-0.245,1.121-0.491,1.81
	c-0.338,0.941-0.609,1.888-0.375,2.88c0.103,0.437,0.348,0.854,0.593,1.241c0.312,0.49,0.192,0.94-0.373,1.079
	c-0.129,0.031-0.319-0.024-0.429-0.107c-0.778-0.591-0.993-1.448-1.066-2.361c-0.076-0.97,0.095-1.9,0.479-2.791
	c0.708-1.64,0.546-3.154-0.636-4.526c-0.248-0.289-0.33-0.589-0.035-0.884c0.278-0.281,0.657-0.264,0.966,0.008
	C24.12,21.15,24.397,22.319,24.485,23.925z"/>
<path fill-rule="evenodd" clip-rule="evenodd" fill="#7C7D7E" d="M25.88,26.235c0.222-0.81,0.393-1.64,0.681-2.426
	c0.345-0.942,0.503-1.888,0.208-2.843c-0.161-0.518-0.506-0.98-0.777-1.462c-0.066-0.116-0.189-0.198-0.263-0.312
	c-0.19-0.295-0.172-0.597,0.103-0.812c0.25-0.194,0.499-0.153,0.775,0.063c1.593,1.248,1.907,3.756,1.132,5.529
	c-0.384,0.876-0.572,1.782-0.492,2.741c0.046,0.562,0.217,1.059,0.617,1.473c0.296,0.307,0.287,0.576,0.005,0.814
	c-0.32,0.27-0.722,0.264-0.97-0.031c-0.655-0.78-0.887-1.705-0.894-2.702C25.964,26.257,25.922,26.247,25.88,26.235z"/>
</svg>
