<?xml version="1.0" encoding="utf-8"?>
<!-- Generator: Adobe Illustrator 16.0.0, SVG Export Plug-In . SVG Version: 6.00 Build 0)  -->
<!DOCTYPE svg PUBLIC "-//W3C//DTD SVG 1.1//EN" "http://www.w3.org/Graphics/SVG/1.1/DTD/svg11.dtd">
<svg version="1.1" id="Слой_1" xmlns="http://www.w3.org/2000/svg" xmlns:xlink="http://www.w3.org/1999/xlink" x="0px" y="0px"
	 width="60px" height="60px" viewBox="0 0 60 60" enable-background="new 0 0 60 60" xml:space="preserve">
<g>
	<path fill="#FFFFFF" d="M52,46c0,2.209-1.791,4-4,4H11c-2.209,0-4-1.791-4-4V14c0-2.209,1.791-4,4-4h37c2.209,0,4,1.791,4,4V46z"/>
	<path fill="#FFFFFF" d="M48.5,50h-37C9.019,50,7,47.981,7,45.5v-32C7,11.019,9.019,9,11.5,9h37c2.481,0,4.5,2.019,4.5,4.5v32
		C53,47.981,50.981,50,48.5,50z M11.5,10C9.57,10,8,11.57,8,13.5v32c0,1.93,1.57,3.5,3.5,3.5h37c1.93,0,3.5-1.57,3.5-3.5v-32
		c0-1.93-1.57-3.5-3.5-3.5H11.5z"/>
</g>
<rect x="19" y="36" fill="#7C7D7E" width="23" height="2"/>
<rect x="19" y="40" fill="#7C7D7E" width="23" height="2"/>
<g>
	<path fill="#7C7D7E" d="M17.633,27.771v-9.926c0.553,0,2.127-0.028,2.822-0.028c2.92,0,3.842,1.561,3.842,3.19
		c0,1.687-1.262,3.219-3.631,3.219c-0.297,0-0.863,0-1.289-0.043v3.588H17.633z M19.377,19.476v3.05
		c0.41,0.042,0.836,0.07,1.232,0.07c1.037,0,1.844-0.496,1.844-1.602c0-1.036-0.639-1.546-1.828-1.546
		C20.271,19.448,19.844,19.462,19.377,19.476z"/>
	<path fill="#7C7D7E" d="M26.314,17.846H26.5c0.596,0,2.014-0.043,2.736-0.043c3.971,0,5.572,2.284,5.572,4.907
		c0,2.793-1.9,5.09-5.686,5.09c-0.596,0-1.703-0.028-2.609-0.028h-0.199V17.846z M28.059,19.476v6.665
		c0.482,0.028,0.879,0.028,1.121,0.028c2.396,0,3.785-1.361,3.785-3.459c0-2-1.389-3.275-3.756-3.275
		C28.795,19.435,28.457,19.448,28.059,19.476z"/>
	<path fill="#7C7D7E" d="M36.826,17.846H42.5v1.63h-3.928v2.808h3.502v1.632h-3.502v3.856h-1.746V17.846z"/>
</g>
</svg>
