<?xml version="1.0" encoding="utf-8"?>
<!-- Generator: Adobe Illustrator 16.0.0, SVG Export Plug-In . SVG Version: 6.00 Build 0)  -->
<!DOCTYPE svg PUBLIC "-//W3C//DTD SVG 1.1//EN" "http://www.w3.org/Graphics/SVG/1.1/DTD/svg11.dtd">
<svg version="1.1" id="Слой_1" xmlns="http://www.w3.org/2000/svg" xmlns:xlink="http://www.w3.org/1999/xlink" x="0px" y="0px"
	 width="70px" height="70px" viewBox="0 0 70 70" enable-background="new 0 0 70 70" xml:space="preserve">
<path fill="#FFFFFF" d="M51.898,57.807H18.935c-3.87,0-7.018-3.147-7.018-7.018V17.825c0-3.87,3.147-7.018,7.018-7.018H51.9
	c3.869,0,7.018,3.148,7.018,7.018v32.964C58.917,54.658,55.77,57.807,51.898,57.807z M18.935,12.912
	c-2.709,0-4.913,2.204-4.913,4.914V50.79c0,2.709,2.204,4.913,4.913,4.913H51.9c2.707,0,4.912-2.204,4.912-4.913V17.825
	c0-2.71-2.205-4.914-4.912-4.914L18.935,12.912L18.935,12.912z"/>
<path fill-rule="evenodd" clip-rule="evenodd" fill="#FFFFFF" d="M35.315,22.871c4.119,0,8.238,0.002,12.357-0.001
	c1.569-0.001,2.841,0.563,3.575,2c0.258,0.503,0.44,1.106,0.444,1.666c0.031,5.256,0.021,10.512,0.017,15.768
	c-0.001,2.1-1.684,3.654-3.98,3.664c-2.569,0.014-5.137,0.004-7.704,0.004c-5.67,0-11.339-0.004-17.009,0.002
	c-1.568,0.002-2.85-0.545-3.59-1.979c-0.266-0.516-0.451-1.137-0.455-1.713c-0.034-5.238-0.021-10.478-0.02-15.716
	c0-2.133,1.676-3.687,4.008-3.692C27.079,22.864,31.197,22.871,35.315,22.871z M20.47,33.702c-0.017,0.106-0.031,0.155-0.031,0.206
	c-0.001,2.81-0.008,5.616,0.007,8.427c0.001,0.281,0.088,0.584,0.21,0.836c0.442,0.926,1.209,1.303,2.217,1.301
	c3.636-0.012,7.272-0.004,10.908-0.004c4.669,0,9.339,0.004,14.008-0.002c1.52-0.002,2.436-0.91,2.436-2.393
	c0.001-2.602,0-5.203,0-7.807c0-0.183,0-0.364,0-0.564C40.272,33.702,30.388,33.702,20.47,33.702z M20.44,28.414
	c9.957,0,19.857,0,29.786,0c0-0.626,0.045-1.214-0.015-1.792c-0.044-0.414-0.16-0.851-0.362-1.21
	c-0.464-0.824-1.254-1.042-2.158-1.042c-8.239,0.008-16.479,0.003-24.719,0.008c-0.291,0.001-0.587,0.025-0.871,0.084
	c-0.851,0.18-1.607,1.032-1.654,1.899C20.411,27.029,20.44,27.701,20.44,28.414z"/>
</svg>
