<svg width="64" height="48" fill="none" xmlns="http://www.w3.org/2000/svg"><g clip-path="url(#clip0)" fill-rule="evenodd" clip-rule="evenodd" fill="#fff"><path d="M22.875 17.113H6.65l-.578-.667H4.215L4.593 15h18.828l-.546 2.113zm10.643 2.457v.023H29.57c-.222.745-.411 1.502-.6 2.247l3.959.01-1.057 4.071v.022h-3.948c-.211.756-.4 1.513-.6 2.269l3.97.01-1.057 4.115v.023h-8.83l.512-1.98 7.851-.01.2-.701-7.873-.011c.2-.768.4-1.546.6-2.325h3.793l.189-.7-3.792-.011.589-2.269h7.851c.078-.234.122-.49.19-.734l-7.852-.011c.178-.756.4-1.502.578-2.257h3.792l.178-.679-3.792-.011.579-2.258h7.851c.078-.244.123-.489.19-.733l-7.852-.012.578-2.246h8.83l-1.079 4.16v-.001zm9.442 2.636l.01.011.468-.867h6.505l.178-.69-6.283-.022 1.235-2.224 5.638-.022c.067-.245.122-.49.178-.734l-5.383-.011 1.246-2.236h5.416L47.82 32.348h-4.17c.177-.656.333-1.323.51-1.99h3.47l.178-.69-3.458-.01.545-2.314 3.502-.01c.078-.223.134-.468.19-.701l-3.459-.011.567-2.27h3.481c.067-.244.122-.488.2-.733l-3.547-.011c.078-.4.178-.8.255-1.19l-5.038 9.92-1.567.01V30.37h1.701c.122-.233.233-.467.356-.7l-2.058-.012v-2.324h3.236c.123-.222.234-.467.356-.7l-3.592-.011v-2.27h4.749c.122-.244.256-.488.367-.733l-5.116-.011c0-.423.011-.845 0-1.257l-2.602 9.998h-4.192l.511-1.98h3.18c.068-.222.123-.456.19-.69l-3.192-.01.6-2.336h3.181c.056-.233.111-.467.178-.7l-3.17-.011c.19-.757.4-1.513.59-2.28h3.17c.077-.234.122-.49.189-.723l-3.17-.011.578-2.258h6.517l.01-.69-6.35-.01.579-2.235h5.605v-.745l-5.405-.012.578-2.246h5.505l.4 6.794h.002zM64 17.647l-.78 2.991-4.314.012c.09-.345.178-.69.278-1.035l-1.4-.01c-.212.733-.39 1.49-.58 2.234l3.081.023 2.124 1.946-1.668 6.55-3.47 1.99h-4.136l-2.658-1.99-.011-.011h9.363l.19-.678-9.386-.012.611-2.313 4.537-.01-.21.867 1.378.01.234-.878h3.414c.066-.233.144-.456.2-.7l-3.425-.012c.033-.222.122-.433.156-.667l-3.503-.01c-.501-.535-1.035-1.057-1.546-1.591l8.885-.011c.067-.245.134-.49.212-.723l-9.375-.011c.189-.756.378-1.502.578-2.247l3.714-.01c.067-.223.112-.468.2-.69l-3.736-.011c.178-.756.4-1.49.578-2.235l9.364-.012.19-.745-9.376-.011 3.792-2.235h4.115L64 17.647zm-41.926 2.547H9.308l-.845-.979h-4.96l.311-1.201h18.828l-.568 2.18zm-.767 2.991h-9.419l-1.079-1.256H2.813l.234-.924h18.828l-.568 2.18zm-.745 2.858h-6.205l-1.28-1.49H2.136l.155-.623h18.84l-.568 2.113zm-.79 2.98h-2.846l-1.524-1.768H1.445l.123-.534 11.854-.01h6.951l-.6 2.312zm-.667 2.558l-1.323-1.557-17.06-.01.067-.323 18.817.01-.5 1.88zm-.311 1.168L0 32.759l.067-.3h18.827l-.1.29z"/></g><defs><clipPath id="clip0"><path fill="#fff" d="M0 0h64v48H0z"/></clipPath></defs></svg>