<svg width="64" height="48" fill="none" xmlns="http://www.w3.org/2000/svg"><path d="M31.5 39s-7.538-3.165-9.868-4.946C19.165 32.076 18 29.372 18 26.272v-15.43c5.962-3.1 13.5-2.836 13.5-2.836s7.538-.264 13.5 2.835v15.366c0 3.099-1.165 5.803-3.632 7.781C39.038 35.835 31.5 39 31.5 39zM19.096 26.273c0 2.901 1.097 5.275 3.221 6.924 1.919 1.517 7.607 3.956 9.183 4.616 1.576-.66 7.333-3.165 9.183-4.616 2.124-1.649 3.22-4.089 3.22-6.925V11.106c-7.949-.725-17.405-.33-24.807 6.265v8.902z" fill="#fff"/><path d="M38.442 24.06c.951.58 1.332.966 1.395 1.674 0 .773-.507 1.223-1.332 1.223-.698 0-1.522-.386-2.093-.901v2.06c.698.387 1.522.71 2.41.71 2.157 0 3.171-1.547 3.171-2.963.064-1.288-.317-2.319-2.156-3.413-.824-.515-1.459-.837-1.459-1.61 0-.773.698-1.095 1.269-1.095.76 0 1.522.45 1.966.901v-1.931c-.38-.322-1.205-.773-2.41-.709-1.459.065-2.981 1.095-2.981 2.898.063 1.224.444 2.125 2.22 3.156zm-7.484 4.636c.19.065.507.13 1.015.13 2.473 0 3.868-2.255 3.868-5.475 0-3.284-1.458-5.28-4.059-5.28-1.205 0-2.156.257-2.98.772v14.554h2.156v-4.7zm0-8.758c.19-.064.507-.193.76-.193 1.27 0 1.777 1.03 1.777 3.542 0 2.447-.635 3.606-1.903 3.606-.317 0-.57-.064-.698-.129v-6.826h.064zm-6.66 8.887c1.332 0 2.474-.322 3.298-.901v-9.725h-2.22v8.437c-.253.193-.57.257-1.015.257-1.014 0-1.141-.966-1.141-1.545v-7.149H21v7.02c0 2.383 1.142 3.606 3.298 3.606zm14.778 8.694V39h.254v-.58h.063l.38.58h.318s-.38-.58-.444-.644c.19-.064.317-.193.317-.386 0-.194-.127-.451-.507-.451h-.381zm.38.193c.19 0 .254.129.254.193 0 .129-.063.258-.317.258h-.063v-.451h.127z" fill="#fff"/><path d="M40.79 39a.81.81 0 01-.79.79.81.81 0 01-.79-.79.81.81 0 01.79-.79c.474 0 .79.369.79.79zM40 38a1 1 0 100 2 1 1 0 001-1c0-.526-.474-1-1-1z" fill="#fff"/></svg>