<svg width="64" height="48" fill="none" xmlns="http://www.w3.org/2000/svg"><rect x="9" y="10" width="28" height="28" rx="14" fill="#FF450C"/><rect x="28" y="10" width="28" height="28" rx="14" fill="#222"/><path fill-rule="evenodd" clip-rule="evenodd" d="M40.65 22.5c-.375-.225-.6-.225-1.05-.225-.45 0-1.5.45-1.65 1.65-.225 1.5.75 2.175 2.175 1.725l.375 1.275c-.45.225-.9.3-1.65.3-1.425 0-3-1.275-2.325-3.9.525-1.875 2.175-2.625 3.15-2.55 1.125.075 1.575.45 1.875.825l-.9.9zm-12.3-1.65H27l-1.05 4.8c-.225 1.35.825 1.575 1.125 1.575.375 0 .75 0 1.05-.225l.15-1.125c-.75.15-.825-.225-.75-.6l.375-2.025h.675l.225-1.05h-.75l.3-1.35zm18 1.275l-.975 5.1H46.8l.45-2.325c.43-1.433.997-1.429 1.374-1.425h.051l.375-1.35c-.75 0-1.125.3-1.35.525l-.15-.525h-1.2zM33 24.975l.002-.007c.15-.83.517-2.843-1.877-2.843-2.25 0-2.55 2.25-2.55 2.55-.075.3-.075 2.55 2.325 2.55.6 0 1.425-.075 1.8-.225l.225-1.05c-.225.075-.975.15-1.575.15-.525 0-1.425 0-1.275-1.125H33zm-7.05-2.7l-.3 1.05a6.257 6.257 0 00-.653-.072c-.26-.02-.503-.038-.622-.078-.525.15-.3.6 0 .75.19.047.41.185.622.318.123.077.243.152.353.207l.049.048c.226.22.54.529.401 1.227-.216 1.44-1.744 1.428-2.198 1.425h-.052c-.525 0-.975 0-1.65-.15l.225-1.05c.574.191 1.31.166 1.656.154l.144-.004c.45 0 .525-.6.15-.75a5.644 5.644 0 01-.335-.188 6.469 6.469 0 00-.79-.412c-.3-.15-.675-.525-.45-1.5.225-1.2 1.875-1.2 2.1-1.2.15 0 .675 0 1.35.225zm-9.3 4.95l1.2-6.15h-2.325l-1.65 3.75-.3-3.75H11.4l-1.2 6.15h1.35l.9-4.425.375 4.425H14.1l1.95-4.35-.825 4.35h1.425zM18 23.4l.225-1.125c.9-.15 1.35-.15 1.65-.075 2.325 0 2.1 1.65 1.95 2.325L21.3 27.3h-1.275l-.15-.3c-.225.15-.45.3-1.125.3s-1.575-.525-1.425-1.575c.34-1.974 2.41-1.848 3.07-1.807.068.004.12.007.155.007.207-.688-.282-.682-.711-.676l-.114.001c-.235 0-.593.041-.935.08-.312.036-.61.07-.79.07zm34.206-.877c.07.071.14.142.22.202l.374-1.95h1.425l-1.2 6.45h-1.5l-.15-.375c-.3.15-.75.375-1.2.375-.975 0-1.875-1.35-1.425-2.925.638-2.196 1.744-2.184 2.496-2.176l.13.001c.44 0 .637.202.83.398zm-10.58-.248L41.4 23.4c.18 0 .478-.034.79-.07.342-.039.7-.08.935-.08l.114-.001c.419-.006.849-.012.711.676a3.12 3.12 0 01-.155-.007c-.66-.04-2.73-.167-3.07 1.807-.15 1.05.75 1.575 1.425 1.575s.9-.15 1.125-.3l.15.3H44.7l.525-2.775c.15-.675.375-2.325-1.95-2.325-.225-.075-.75-.075-1.65.075zm-7.65-.075L33 27.225v.075h1.425l.45-2.325c.43-1.435 1.067-1.428 1.384-1.425h.041l.375-1.35c-.75 0-1.125.3-1.35.525l-.15-.525h-1.2zM31.8 24h-1.725c.15-.6.525-.9 1.125-.9.525 0 .675.375.6.9zm-11.652.96c.07.008.13.015.177.015l-.075.525c-.15.45-.75.75-1.2.6-.525-.15-.375-.675.075-.975.356-.237.758-.193 1.023-.164zm31.827-.135c.15-.45.075-1.05-.075-1.275-.45-.6-1.425-.15-1.725.975-.225.75.225 1.275.675 1.275.525 0 .825-.375 1.125-.975zm-8.352.136c.07.007.13.014.177.014l-.075.525c-.075.45-.75.75-1.2.6-.525-.15-.375-.675.075-.975.356-.237.758-.193 1.023-.164z" fill="#fff"/></svg>