<svg width="24" height="24" fill="none" xmlns="http://www.w3.org/2000/svg"><path d="M1.01 1C.456 1 0 1.45 0 2s.455 1 1.01 1h2.243l2.653 10.5A2 2 0 007.863 15h11.59c.911 0 1.685-.598 1.926-1.469L24 4H7.074l.505 2h13.8l-1.926 7H7.863L5.21 2.5a1.981 1.981 0 00-.716-1.085A2.018 2.018 0 003.254 1H1.01zm17.18 15c-1.663 0-3.032 1.355-3.032 3s1.37 3 3.031 3c1.663 0 3.032-1.355 3.032-3s-1.37-3-3.032-3zm-9.095 0c-1.663 0-3.032 1.355-3.032 3s1.37 3 3.032 3 3.031-1.355 3.031-3-1.369-3-3.031-3zm0 2a.992.992 0 011.01 1c0 .563-.442 1-1.01 1a.992.992 0 01-1.01-1c0-.563.442-1 1.01-1zm9.094 0a.992.992 0 011.011 1c0 .563-.443 1-1.01 1a.992.992 0 01-1.011-1c0-.563.443-1 1.01-1z" fill="#fff"/></svg>