<svg width="64" height="48" fill="none" xmlns="http://www.w3.org/2000/svg"><path fill-rule="evenodd" clip-rule="evenodd" d="M26.578 25.742c-.011.724.178 1.349.97 1.349.591 0 .959-.28 1.037-.803h1.963c-.067.725-.524 1.249-1.06 1.561-.49.312-1.115.435-1.773.435-2.242 0-3.134-.96-3.134-3.156 0-1.773 1.327-2.777 3.011-2.777 2.276 0 3 1.305 3 3.39h-4.014zm2.007-1.138c0-.301-.09-.603-.257-.837a.8.8 0 00-.736-.356c-.736.033-.914.557-.97 1.193h1.963zM0 28.117v-8.053h3.703c1.974 0 3.268.636 3.268 2.587 0 1.952-1.294 2.588-3.268 2.588H2.23v2.877H0zm3.38-4.439c.88-.034 1.249-.435 1.249-1.026 0-.59-.368-.993-1.25-1.026H2.231v2.052h1.148zm10.18 1.64c0 2.062-1.506 2.966-3.258 2.966-1.75 0-3.256-.904-3.256-2.966 0-2.064 1.506-2.967 3.256-2.967 1.752 0 3.258.903 3.258 2.966zm-3.258 1.74c.893 0 1.082-.949 1.082-1.74 0-.792-.189-1.74-1.082-1.74-.891 0-1.081.948-1.081 1.74 0 .791.19 1.74 1.081 1.74zm6.95-2.811c0-.19-.034-.357-.134-.469-.112-.122-.29-.2-.58-.2-.313 0-.502.178-.502.502 0 .412.858.39 2.185.803.67.211 1.127.624 1.127 1.539 0 1.483-1.394 1.862-2.677 1.862-1.372 0-2.71-.279-2.699-1.985h2.008a.612.612 0 00.145.502.675.675 0 00.502.256c.412 0 .713-.156.713-.513 0-.992-3.312-.401-3.312-2.431 0-1.383 1.472-1.762 2.587-1.762 1.328 0 2.554.345 2.644 1.896H17.25zm3.492-1.73v-.847l2.119-.803v1.65h1.227v1.34h-1.227v2.219c0 .145-.089.87.402.87.278 0 .569 0 .814-.034v1.26a5.91 5.91 0 01-1.138.113c-1.439 0-2.309-.201-2.197-1.919v-2.51H19.65v-1.338h1.093zm10.764-.056h1.062v5.617h-1.063V22.46zM31.407 20h1.264v1.153h-1.264V20zm2.868 2.461v-1.197l1.063-.336v1.533l1.298-.034v.795l-1.298-.012v3.626c0 .402.313.593.694.593.168 0 .39-.023.56-.067v.816c-.247.012-.482.068-.728.068a3.84 3.84 0 01-.716-.056c-.168-.034-.448-.123-.627-.37-.19-.268-.246-.29-.246-1.04v-3.57l-.963.012v-.795l.963.034zm6.534 2.149c0-.974-.056-1.544-1.186-1.544-.537 0-1.04.313-1.052.895h-1.119c.055-1.23 1.019-1.667 2.126-1.667 1.152 0 2.294.346 2.294 1.913v2.685c0 .246.011.716.045 1.186H41.2c-.1 0-.29.056-.302-.078-.022-.257-.045-.503-.055-.761h-.023c-.346.705-.973 1.008-1.745 1.008-.973 0-1.958-.504-1.958-1.6 0-1.579 1.399-2.037 2.73-2.037h.962zm-1.062.738c-.65.034-1.512.268-1.512 1.085 0 .694.482 1.04 1.108 1.04 1.253 0 1.488-1.084 1.465-2.125h-1.061zM42.929 20h1.063v8.078h-1.063V20zm2.384 2.461h1.063v5.617h-1.063V22.46zm-.1-2.461h1.264v1.153h-1.264V20zm5.814 4.61c0-.974-.055-1.544-1.185-1.544-.538 0-1.04.313-1.052.895h-1.12c.057-1.23 1.02-1.667 2.127-1.667 1.152 0 2.294.346 2.294 1.913v2.685c0 .246.01.716.044 1.186h-.716c-.1 0-.291.056-.302-.078a16.121 16.121 0 01-.056-.761h-.022c-.346.705-.973 1.008-1.746 1.008-.973 0-1.958-.504-1.958-1.6 0-1.579 1.4-2.037 2.73-2.037h.962zm-1.062.738c-.649.034-1.511.268-1.511 1.085 0 .694.481 1.04 1.108 1.04 1.253 0 1.488-1.084 1.465-2.125h-1.062zm4.266-2.058h.022c.358-.705 1.142-.996 1.7-.996.392 0 2.127.1 2.127 1.902v3.882h-1.063v-3.535c0-.929-.392-1.433-1.286-1.433 0 0-.583-.033-1.03.415-.157.156-.448.402-.448 1.499v3.054h-1.062v-5.617h1.04v.829zm5.808 2.181c-.078.985.325 2.003 1.41 2.003.828 0 1.242-.325 1.365-1.142h1.119c-.167 1.276-1.153 1.914-2.496 1.914-1.8 0-2.517-1.275-2.517-2.931 0-1.645.828-3.021 2.607-3.021 1.678.033 2.473 1.096 2.473 2.65v.527h-3.96zm2.843-.738c.022-.94-.404-1.668-1.433-1.668-.884 0-1.41.75-1.41 1.668h2.843z" fill="#fff"/></svg>