<svg width="64" height="48" fill="none" xmlns="http://www.w3.org/2000/svg"><path fill-rule="evenodd" clip-rule="evenodd" d="M50.717 28.5L53.004 18h-3.987L46 31.992l7.27.008.73-3.5h-3.283zm10.573-7.413c.626 0 1.524.139 2.064.319L64 18.198a17.122 17.122 0 00-2.582-.199c-4.128 0-6.066 2.291-6.066 4.859 0 3.365 3.668 3.325 3.668 4.758 0 .719-.543 1.117-1.708 1.117-.813 0-1.94-.181-2.609-.42L54 31.755c.77.14 1.85.246 2.937.246 3.688 0 6.27-2.291 6.27-5.06 0-3.265-3.685-3.325-3.685-4.759 0-.636.458-1.094 1.768-1.094zM43.881 18C38.471 18 35 21.972 35 26.844 35 29.892 36.636 32 40.767 32c1.637 0 3.363-.296 4.74-.877l1.328-6.744h-3.632l-.779 4.11c-.32.08-.698.101-.998.101-1.816 0-2.474-.981-2.474-2.287 0-2.426 1.517-4.934 4.61-4.934.87 0 1.82.16 2.672.42.089.023.175.052.269.081.307.103.568.214.757.314l.74-3.648A16.653 16.653 0 0043.881 18zm-27.553-.089l-.967 4.664h6.662c-5.517 8.142-16.475 6.758-19.371 3.383-2.495-2.91-.34-7.885 7.053-10.958C2.388 17.216-1.722 23.04.693 26.958c2.735 4.444 11.267 6.3 18.848 4.142 5.066-1.775 7.226-4.257 8.017-5.596l-1.241 6.456h4.98L34 17.91H16.328z" fill="#fff"/></svg>