<svg width="64" height="48" fill="none" xmlns="http://www.w3.org/2000/svg"><path fill-rule="evenodd" clip-rule="evenodd" d="M.08 17H64v8.547h-7.261l-.471.643H64v.55h-8.138l-.474.643H64v3.722H.08v-2.533h7.294l.47-.639H.08v-.55h8.17l.473-.644H.079v-.55h9.05l.472-.642H.079V17zm11.24 2.532l-2.043 2.775h11.13c.563 0 .556.214.28.587-.136.184-.317.435-.5.689-.192.266-.386.534-.53.73l-.001.001c-.144.196-.404.549.46.549h4.552l1.348-1.833c.837-1.135.073-3.498-2.918-3.498H11.32zm-2.87 9.04l4.103-5.573h5.09c.563 0 .555.213.28.586l-.403.55-.002.002a792.8 792.8 0 01-.633.861c-.145.195-.406.55.46.55h6.819c-.567.777-2.407 3.024-5.71 3.024H8.45zm21.269 0l2.224-3.025h-5.868l-2.225 3.025h5.869zm11.214-3.71H26.579l3.926-5.33h5.866l-2.249 3.057h2.618l2.25-3.057h5.866l-3.923 5.33zm-2.73 3.71l2.225-3.025h-5.865l-2.226 3.025h5.865zm25.797 0h-9.486l.469-.639H64v.639zm-11.02-9.04l-3.925 5.33H42.84l3.927-5.33h6.212zM41.7 26.416c.208-.282.636-.869.636-.869h13.328l-2.225 3.025h-9.421c-2.406 0-3.055-1.16-2.319-2.156z" fill="#fff"/></svg>