<svg width="64" height="48" fill="none" xmlns="http://www.w3.org/2000/svg"><path d="M55.806 33L53.4 30.307 51.016 33H46l4.901-5.498L46 22h5.173l2.43 2.67L55.94 22h4.994l-4.881 5.481L61 33h-5.194zM37 33V16h9v3.788h-5.187v2.422H46v3.648h-5.187v3.344H46V33h-9zm-4.052-17v6.715h-.045c-.9-.978-2.021-1.319-3.32-1.319-2.666 0-4.674 1.717-5.38 3.986-.804-2.498-2.877-4.032-5.949-4.032-2.497 0-4.468 1.062-5.496 2.79v-2.148h-5.16v-2.337h5.631V16H3v16.402h4.599v-6.89h4.583a6.24 6.24 0 00-.208 1.62c0 3.42 2.757 5.82 6.281 5.82 2.959 0 4.912-1.314 5.944-3.717h-3.943c-.533.721-.936.935-2 .935-1.239 0-2.304-1.02-2.304-2.233h8.026C24.326 30.654 26.56 33 29.628 33c1.321 0 2.534-.617 3.275-1.659h.045V33H37V16h-4.052zM16.08 25.558c.256-1.043 1.105-1.723 2.174-1.723 1.172 0 1.98.659 2.193 1.723H16.08zm14.404 4.349c-1.492 0-2.42-1.319-2.42-2.695 0-1.474.805-2.89 2.42-2.89 1.677 0 2.344 1.416 2.344 2.89 0 1.393-.708 2.695-2.344 2.695z" fill="#fff"/></svg>