<svg width="64" height="48" fill="none" xmlns="http://www.w3.org/2000/svg"><path d="M27.62 16.49l-2.409 14.99h3.85l2.408-14.99H27.62zm11.615 6.106c-1.346-.665-2.17-1.113-2.17-1.793.016-.617.697-1.25 2.218-1.25a6.7 6.7 0 012.868.555l.35.155.523-3.136a9.719 9.719 0 00-3.456-.618c-3.803 0-6.48 1.977-6.497 4.805-.031 2.086 1.917 3.244 3.375 3.939 1.49.712 1.997 1.174 1.997 1.807-.017.972-1.204 1.42-2.313 1.42-1.536 0-2.361-.23-3.613-.772l-.508-.23-.538 3.259c.905.402 2.568.756 4.295.774 4.04 0 6.67-1.947 6.703-4.96.013-1.654-1.014-2.92-3.234-3.955zm13.66-6.06h-2.979c-.918 0-1.615.264-2.013 1.206l-5.72 13.739h4.042l1.113-2.975h4.52l.578 2.987H56l-3.105-14.957zm-4.437 8.968c.078.008 1.551-4.855 1.551-4.855l1.173 4.855h-2.724zM21.994 16.49L18.22 26.675l-.41-2.009c-.698-2.318-2.885-4.836-5.326-6.087l3.455 12.887h4.074l6.054-14.975h-4.074v-.002z" fill="#fff"/><path d="M16.541 18.423c-.294-1.143-1.232-1.914-2.505-1.93H8.062L8 16.77c4.66 1.149 8.573 4.684 9.841 8.01l-1.3-6.357z" fill="#fff"/></svg>