<svg width="64" height="48" fill="none" xmlns="http://www.w3.org/2000/svg"><path fill-rule="evenodd" clip-rule="evenodd" d="M41.7 10.2c7.65 0 13.8 6.225 13.8 13.8 0 7.575-6.15 13.8-13.725 13.8-3.3 0-6.3-1.125-8.7-3.075 1.8-1.725 3.15-3.9 3.9-6.375H35.85c-.675 2.175-1.95 4.125-3.6 5.7-1.65-1.575-2.85-3.525-3.6-5.7h-1.125c.75 2.475 2.1 4.65 3.9 6.375C29.1 36.6 26.1 37.8 22.8 37.8 15.15 37.8 9 31.575 9 24c0-7.575 6.15-13.8 13.725-13.8 3.3 0 6.225 1.125 8.625 3.075-1.8 1.725-3.15 3.9-3.9 6.375h1.125c.75-2.175 1.95-4.125 3.6-5.7 1.65 1.575 2.85 3.525 3.6 5.7H36.9c-.675-2.475-2.1-4.65-3.9-6.375a13.67 13.67 0 018.7-3.075zm-2.1 12.075c.45 0 .675 0 1.05.225l.9-.9c-.3-.375-.75-.75-1.875-.825-.975-.075-2.625.675-3.15 2.55-.675 2.625.9 3.9 2.325 3.9.75 0 1.2-.075 1.65-.3l-.375-1.275c-1.425.45-2.4-.225-2.175-1.725.15-1.2 1.2-1.65 1.65-1.65zM27 20.85h1.35l-.3 1.35h.75l-.225 1.05H27.9l-.375 2.025c-.075.375 0 .75.75.6L28.125 27c-.3.225-.675.225-1.05.225-.3 0-1.35-.225-1.125-1.575l1.05-4.8zm18.375 6.375l.975-5.1h1.2l.15.525c.225-.225.6-.525 1.35-.525l-.375 1.35h-.051c-.377-.004-.944-.009-1.374 1.425l-.45 2.325h-1.425zm-12.373-2.257l-.002.007h-2.925c-.15 1.125.75 1.125 1.275 1.125.6 0 1.35-.075 1.575-.15L32.7 27c-.375.15-1.2.225-1.8.225-2.4 0-2.4-2.25-2.325-2.55 0-.3.3-2.55 2.55-2.55 2.394 0 2.027 2.014 1.877 2.843zm-7.352-1.643l.3-1.05c-.675-.225-1.2-.225-1.35-.225-.225 0-1.875 0-2.1 1.2-.225.975.15 1.35.45 1.5.336.144.58.288.79.412.119.07.227.134.335.188.375.15.3.75-.15.75l-.144.004c-.346.012-1.082.037-1.656-.154L21.9 27c.675.15 1.125.15 1.65.15h.052c.454.004 1.982.014 2.198-1.425.14-.698-.175-1.006-.401-1.227l-.049-.048c-.11-.055-.23-.13-.353-.207-.212-.133-.432-.27-.622-.318-.3-.15-.525-.6 0-.75.119.04.363.058.622.078.232.018.476.037.653.072zm-7.8-2.25l-1.2 6.15h-1.425l.825-4.35-1.95 4.35h-1.275L12.45 22.8l-.9 4.425H10.2l1.2-6.15h2.175l.3 3.75 1.65-3.75h2.325zm.375 1.2L18 23.4c.18 0 .478-.034.79-.07.342-.039.7-.08.935-.08l.114-.001c.43-.006.918-.012.711.676a3.12 3.12 0 01-.155-.007c-.66-.04-2.73-.167-3.07 1.807-.15 1.05.75 1.575 1.425 1.575s.9-.15 1.125-.3l.15.3H21.3l.525-2.775c.15-.675.375-2.325-1.95-2.325-.3-.075-.75-.075-1.65.075zm34.2.45a1.9 1.9 0 01-.219-.202c-.193-.196-.39-.398-.83-.398l-.13-.001c-.752-.008-1.858-.02-2.496 2.176-.45 1.575.45 2.925 1.425 2.925.45 0 .9-.225 1.2-.375l.15.375h1.5l1.2-6.45H52.8l-.375 1.95zM41.4 23.4l.225-1.125c.9-.15 1.425-.15 1.65-.075 2.325 0 2.1 1.65 1.95 2.325L44.7 27.3h-1.275l-.15-.3c-.225.15-.45.3-1.125.3s-1.575-.525-1.425-1.575c.34-1.974 2.41-1.848 3.07-1.807.068.004.12.007.155.007.138-.688-.292-.682-.711-.676l-.114.001c-.235 0-.593.041-.935.08-.312.036-.61.07-.79.07zM33 27.225l.975-5.025h1.2l.15.525c.225-.225.6-.525 1.35-.525l-.375 1.35h-.04c-.318-.003-.954-.01-1.385 1.425l-.45 2.325H33v-.075zM30.075 24H31.8c.075-.525-.075-.9-.6-.9-.6 0-.975.3-1.125.9zm-9.75.975a1.8 1.8 0 01-.177-.014c-.265-.03-.667-.073-1.023.164-.45.3-.6.825-.075.975.45.15 1.05-.15 1.2-.6l.075-.525zM51.9 23.55c.15.225.225.825.075 1.275-.3.6-.6.975-1.125.975-.45 0-.9-.525-.675-1.275.3-1.125 1.275-1.575 1.725-.975zm-8.1 1.425c-.047 0-.107-.007-.177-.014-.265-.03-.667-.073-1.023.164-.45.3-.6.825-.075.975.45.15 1.125-.15 1.2-.6l.075-.525z" fill="#fff"/></svg>