<svg width="64" height="48" fill="none" xmlns="http://www.w3.org/2000/svg"><path d="M27.62 16.49l-2.41 14.99h3.851l2.408-14.99h-3.85zm11.614 6.106c-1.345-.665-2.17-1.113-2.17-1.793.016-.617.697-1.25 2.218-1.25a6.7 6.7 0 012.869.555l.349.155.523-3.136a9.719 9.719 0 00-3.456-.618c-3.802 0-6.48 1.977-6.496 4.805-.032 2.086 1.917 3.244 3.375 3.939 1.49.712 1.996 1.174 1.996 1.807-.016.972-1.204 1.42-2.313 1.42-1.535 0-2.36-.23-3.613-.772l-.507-.23-.538 3.259c.904.402 2.567.756 4.294.774 4.041 0 6.67-1.947 6.704-4.96.013-1.654-1.015-2.92-3.235-3.955zm13.66-6.06h-2.978c-.918 0-1.616.264-2.013 1.206l-5.72 13.739h4.041l1.113-2.975h4.521l.578 2.987H56l-3.105-14.957zm-4.436 8.968c.078.008 1.55-4.855 1.55-4.855l1.174 4.855h-2.724zM21.993 16.49l-3.772 10.186-.411-2.009c-.698-2.318-2.884-4.836-5.325-6.087l3.454 12.887h4.075l6.053-14.975h-4.074v-.002z" fill="#222"/><path d="M16.541 18.423c-.294-1.143-1.232-1.914-2.505-1.93H8.062L8 16.77c4.66 1.149 8.573 4.684 9.841 8.01l-1.3-6.357z" fill="#FF450C"/></svg>